<svg width="40" height="40" viewBox="0 0 40 40" fill="none" xmlns="http://www.w3.org/2000/svg">
<circle cx="20.0003" cy="28.3333" r="3.33333" fill="#5ACE6F"/>
<circle cx="19.9997" cy="9.99992" r="1.66667" fill="#5ACE6F"/>
<path d="M13.8348 14.9566C14.7426 13.8103 16.8601 11.6667 20 11.6667C23.1399 11.6667 25.2574 13.8103 26.1652 14.9566C26.5198 15.4043 26.6994 15.954 26.7626 16.5216L27.2074 20.5162C27.2911 21.2678 27.5861 21.9803 28.0583 22.571L29.4598 24.3242C29.8095 24.7618 30 25.3052 30 25.8653C30 27.2284 28.895 28.3334 27.5319 28.3334H12.4681C11.105 28.3334 10 27.2284 10 25.8653C10 25.3052 10.1905 24.7618 10.5402 24.3242L11.9417 22.571C12.4139 21.9803 12.7089 21.2678 12.7926 20.5162L13.2374 16.5216C13.3006 15.954 13.4802 15.4043 13.8348 14.9566Z" fill="white" stroke="#5ACE6F" stroke-width="2"/>
</svg>
