<svg width="22" height="22" viewBox="0 0 22 22" fill="none" xmlns="http://www.w3.org/2000/svg">
<circle cx="11" cy="11" r="11" fill="#FF3D00"/>
<g clip-path="url(#clip0_698_5959)">
<path d="M17.4002 14.7334H15.4802L11.7469 3.53339C11.5336 2.78672 10.4669 2.78672 10.2536 3.53339L6.52023 14.7334H4.60023C4.28023 14.7334 4.06689 14.9467 4.06689 15.2667V16.3334C4.06689 16.6534 4.28023 16.8667 4.60023 16.8667H17.4002C17.7202 16.8667 17.9336 16.6534 17.9336 16.3334V15.2667C17.9336 14.9467 17.7202 14.7334 17.4002 14.7334ZM10.4669 6.20006H11.5336L12.2802 8.33339H9.82689L10.4669 6.20006ZM9.08023 10.4667H12.9202L13.6669 12.6001H8.33356L9.08023 10.4667Z" fill="white"/>
</g>
<defs>
<clipPath id="clip0_698_5959">
<rect width="16" height="16" fill="white" transform="translate(3 3)"/>
</clipPath>
</defs>
</svg>
