<svg width="24" height="24" viewBox="0 0 24 24" fill="none" xmlns="http://www.w3.org/2000/svg">
<path fill-rule="evenodd" clip-rule="evenodd" d="M13.6464 15.3536C13.4512 15.1583 13.4512 14.8417 13.6464 14.6464L16.2929 12L13.6464 9.35355C13.4512 9.15829 13.4512 8.84171 13.6464 8.64645C13.8417 8.45118 14.1583 8.45118 14.3536 8.64645L17.3536 11.6464C17.4473 11.7402 17.5 11.8674 17.5 12C17.5 12.1326 17.4473 12.2598 17.3536 12.3536L14.3536 15.3536C14.1583 15.5488 13.8417 15.5488 13.6464 15.3536Z" fill="#1A1A1A"/>
<path fill-rule="evenodd" clip-rule="evenodd" d="M17 12C17 12.2761 16.7761 12.5 16.5 12.5L7.5 12.5C7.22386 12.5 7 12.2761 7 12C7 11.7239 7.22386 11.5 7.5 11.5L16.5 11.5C16.7761 11.5 17 11.7239 17 12Z" fill="#1A1A1A"/>
</svg>
