<svg width="62" height="54" viewBox="0 0 62 54" fill="none" xmlns="http://www.w3.org/2000/svg">
<path fill-rule="evenodd" clip-rule="evenodd" d="M22 18C22 22.9706 26.0294 27 31 27C35.9706 27 40 22.9706 40 18C40 13.0294 35.9706 9 31 9C26.0294 9 22 13.0294 22 18ZM31 7.5C25.201 7.5 20.5 12.201 20.5 18C20.5 23.799 25.201 28.5 31 28.5C36.799 28.5 41.5 23.799 41.5 18C41.5 12.201 36.799 7.5 31 7.5Z" fill="#1A1A1A"/>
<path fill-rule="evenodd" clip-rule="evenodd" d="M22 18C22 22.9706 26.0294 27 31 27C35.9706 27 40 22.9706 40 18C40 13.0294 35.9706 9 31 9C26.0294 9 22 13.0294 22 18ZM31 7.5C25.201 7.5 20.5 12.201 20.5 18C20.5 23.799 25.201 28.5 31 28.5C36.799 28.5 41.5 23.799 41.5 18C41.5 12.201 36.799 7.5 31 7.5Z" fill="white" fill-opacity="0.8"/>
<path d="M29.5 18C29.5 17.1716 30.1716 16.5 31 16.5V16.5C31.8284 16.5 32.5 17.1716 32.5 18V22.5C32.5 23.3284 31.8284 24 31 24V24C30.1716 24 29.5 23.3284 29.5 22.5V18Z" fill="#1A1A1A"/>
<path d="M29.5 18C29.5 17.1716 30.1716 16.5 31 16.5V16.5C31.8284 16.5 32.5 17.1716 32.5 18V22.5C32.5 23.3284 31.8284 24 31 24V24C30.1716 24 29.5 23.3284 29.5 22.5V18Z" fill="white" fill-opacity="0.8"/>
<path d="M28.7485 17.25C28.7485 16.8358 29.0843 16.5 29.4985 16.5H31V18H29.4985C29.0843 18 28.7485 17.6642 28.7485 17.25V17.25Z" fill="#1A1A1A"/>
<path d="M28.7485 17.25C28.7485 16.8358 29.0843 16.5 29.4985 16.5H31V18H29.4985C29.0843 18 28.7485 17.6642 28.7485 17.25V17.25Z" fill="white" fill-opacity="0.8"/>
<path d="M28.7485 23.25C28.7485 22.8358 29.0843 22.5 29.4985 22.5H31V24H29.4985C29.0843 24 28.7485 23.6642 28.7485 23.25V23.25Z" fill="#1A1A1A"/>
<path d="M28.7485 23.25C28.7485 22.8358 29.0843 22.5 29.4985 22.5H31V24H29.4985C29.0843 24 28.7485 23.6642 28.7485 23.25V23.25Z" fill="white" fill-opacity="0.8"/>
<path d="M31 22.5H32.4979C32.9121 22.5 33.2479 22.8358 33.2479 23.25V23.25C33.2479 23.6642 32.9121 24 32.4979 24H31V22.5Z" fill="#1A1A1A"/>
<path d="M31 22.5H32.4979C32.9121 22.5 33.2479 22.8358 33.2479 23.25V23.25C33.2479 23.6642 32.9121 24 32.4979 24H31V22.5Z" fill="white" fill-opacity="0.8"/>
<path d="M32.5 13.5C32.5 14.3284 31.8284 15 31 15C30.1716 15 29.5 14.3284 29.5 13.5C29.5 12.6716 30.1716 12 31 12C31.8284 12 32.5 12.6716 32.5 13.5Z" fill="#1A1A1A"/>
<path d="M32.5 13.5C32.5 14.3284 31.8284 15 31 15C30.1716 15 29.5 14.3284 29.5 13.5C29.5 12.6716 30.1716 12 31 12C31.8284 12 32.5 12.6716 32.5 13.5Z" fill="white" fill-opacity="0.8"/>
<path d="M1.34718 39.032H8.19318V39.914H5.28118V41.566C5.28118 43.652 6.82118 45.752 8.58518 46.522L7.98318 47.362C6.58318 46.704 5.33718 45.276 4.76318 43.582C4.20318 45.388 2.97118 46.956 1.57118 47.656L0.96918 46.83C2.69118 45.99 4.23118 43.68 4.23118 41.566V39.914H1.34718V39.032ZM9.90118 50.022V37.772H10.9512V50.022H9.90118ZM21.5635 37.772H22.6135V42.84H24.6435V43.722H22.6135V50.022H21.5635V37.772ZM13.1355 40.614V39.746H16.2715V37.912H17.3355V39.746H20.3875V40.614H13.1355ZM13.8495 44.464C13.8495 42.812 15.1095 41.664 16.8175 41.664C18.5395 41.664 19.7855 42.812 19.7855 44.464C19.7855 46.116 18.5395 47.264 16.8175 47.264C15.1095 47.264 13.8495 46.116 13.8495 44.464ZM14.8575 44.464C14.8575 45.584 15.6695 46.382 16.8175 46.382C17.9515 46.382 18.7775 45.584 18.7775 44.464C18.7775 43.344 17.9515 42.532 16.8175 42.532C15.6695 42.532 14.8575 43.344 14.8575 44.464ZM25.7778 39.004H28.5358V37.716H29.5718V39.004H32.3158V39.858H29.5718V40.18C29.5718 41.552 30.9438 42.714 32.7218 43.148L32.2738 43.946C30.8178 43.582 29.6418 42.756 29.0818 41.664C28.5358 42.868 27.3598 43.778 25.8758 44.184L25.3998 43.372C27.2058 42.882 28.5358 41.65 28.5358 40.18V39.858H25.7778V39.004ZM27.6258 45.64V44.8H35.4798V47.67H28.6898V49.042H35.9558V49.882H27.6538V46.886H34.4438V45.64H27.6258ZM31.9378 41.692V40.838H34.4438V37.772H35.4798V44.198H34.4438V41.692H31.9378ZM44.1882 40.978H46.6802V37.772H47.7302V45.066H46.6802V41.846H44.1882V40.978ZM37.7342 44.114C39.5262 43.456 40.8282 41.804 40.8282 40.026V39.55H38.0562V38.682H44.5942V39.55H41.8782V40.026C41.8782 41.622 43.1102 43.148 44.8742 43.764L44.3282 44.604C42.9562 44.1 41.8922 43.064 41.3742 41.79C40.8562 43.246 39.7082 44.394 38.2662 44.954L37.7342 44.114ZM39.6382 47.74C39.6382 46.312 41.1782 45.458 43.7122 45.458C46.2322 45.458 47.7722 46.312 47.7722 47.74C47.7722 49.182 46.2322 50.008 43.7122 50.008C41.1782 50.008 39.6382 49.182 39.6382 47.74ZM40.6882 47.74C40.6882 48.636 41.8362 49.182 43.7122 49.182C45.5742 49.182 46.7362 48.636 46.7362 47.74C46.7362 46.83 45.5742 46.284 43.7122 46.284C41.8362 46.284 40.6882 46.83 40.6882 47.74ZM49.9145 47.558H54.9265V44.884H51.2445V38.64H52.2805V40.852H58.6365V38.64H59.6725V44.884H55.9625V47.558H61.0165V48.44H49.9145V47.558ZM52.2805 44.03H58.6365V41.72H52.2805V44.03Z" fill="#1A1A1A"/>
<path d="M1.34718 39.032H8.19318V39.914H5.28118V41.566C5.28118 43.652 6.82118 45.752 8.58518 46.522L7.98318 47.362C6.58318 46.704 5.33718 45.276 4.76318 43.582C4.20318 45.388 2.97118 46.956 1.57118 47.656L0.96918 46.83C2.69118 45.99 4.23118 43.68 4.23118 41.566V39.914H1.34718V39.032ZM9.90118 50.022V37.772H10.9512V50.022H9.90118ZM21.5635 37.772H22.6135V42.84H24.6435V43.722H22.6135V50.022H21.5635V37.772ZM13.1355 40.614V39.746H16.2715V37.912H17.3355V39.746H20.3875V40.614H13.1355ZM13.8495 44.464C13.8495 42.812 15.1095 41.664 16.8175 41.664C18.5395 41.664 19.7855 42.812 19.7855 44.464C19.7855 46.116 18.5395 47.264 16.8175 47.264C15.1095 47.264 13.8495 46.116 13.8495 44.464ZM14.8575 44.464C14.8575 45.584 15.6695 46.382 16.8175 46.382C17.9515 46.382 18.7775 45.584 18.7775 44.464C18.7775 43.344 17.9515 42.532 16.8175 42.532C15.6695 42.532 14.8575 43.344 14.8575 44.464ZM25.7778 39.004H28.5358V37.716H29.5718V39.004H32.3158V39.858H29.5718V40.18C29.5718 41.552 30.9438 42.714 32.7218 43.148L32.2738 43.946C30.8178 43.582 29.6418 42.756 29.0818 41.664C28.5358 42.868 27.3598 43.778 25.8758 44.184L25.3998 43.372C27.2058 42.882 28.5358 41.65 28.5358 40.18V39.858H25.7778V39.004ZM27.6258 45.64V44.8H35.4798V47.67H28.6898V49.042H35.9558V49.882H27.6538V46.886H34.4438V45.64H27.6258ZM31.9378 41.692V40.838H34.4438V37.772H35.4798V44.198H34.4438V41.692H31.9378ZM44.1882 40.978H46.6802V37.772H47.7302V45.066H46.6802V41.846H44.1882V40.978ZM37.7342 44.114C39.5262 43.456 40.8282 41.804 40.8282 40.026V39.55H38.0562V38.682H44.5942V39.55H41.8782V40.026C41.8782 41.622 43.1102 43.148 44.8742 43.764L44.3282 44.604C42.9562 44.1 41.8922 43.064 41.3742 41.79C40.8562 43.246 39.7082 44.394 38.2662 44.954L37.7342 44.114ZM39.6382 47.74C39.6382 46.312 41.1782 45.458 43.7122 45.458C46.2322 45.458 47.7722 46.312 47.7722 47.74C47.7722 49.182 46.2322 50.008 43.7122 50.008C41.1782 50.008 39.6382 49.182 39.6382 47.74ZM40.6882 47.74C40.6882 48.636 41.8362 49.182 43.7122 49.182C45.5742 49.182 46.7362 48.636 46.7362 47.74C46.7362 46.83 45.5742 46.284 43.7122 46.284C41.8362 46.284 40.6882 46.83 40.6882 47.74ZM49.9145 47.558H54.9265V44.884H51.2445V38.64H52.2805V40.852H58.6365V38.64H59.6725V44.884H55.9625V47.558H61.0165V48.44H49.9145V47.558ZM52.2805 44.03H58.6365V41.72H52.2805V44.03Z" fill="white" fill-opacity="0.8"/>
</svg>
