<svg width="62" height="54" viewBox="0 0 62 54" fill="none" xmlns="http://www.w3.org/2000/svg">
<path fill-rule="evenodd" clip-rule="evenodd" d="M29.1636 8.79619C30.0603 7.52952 31.9398 7.52953 32.8365 8.79619L35.0835 11.9704C35.1787 12.1049 35.3154 12.2042 35.4727 12.2532L39.1859 13.4093C40.6677 13.8707 41.2485 15.6583 40.3209 16.9024L37.9964 20.0204C37.898 20.1524 37.8457 20.3132 37.8478 20.4779L37.8956 24.3667C37.9147 25.9185 36.3942 27.0233 34.9242 26.5256L31.2406 25.2783C31.0846 25.2255 30.9155 25.2255 30.7595 25.2783L27.0759 26.5256C25.6059 27.0233 24.0853 25.9185 24.1044 24.3667L24.1523 20.4779C24.1544 20.3132 24.1021 20.1524 24.0037 20.0204L21.6792 16.9024C20.7516 15.6583 21.3324 13.8707 22.8141 13.4093L26.5274 12.2532C26.6846 12.2042 26.8214 12.1049 26.9166 11.9704L29.1636 8.79619ZM31.6122 9.66286C31.3133 9.24064 30.6868 9.24064 30.3879 9.66286L28.1409 12.8371C27.8554 13.2404 27.4451 13.5385 26.9733 13.6854L23.2601 14.8415C22.7661 14.9953 22.5725 15.5912 22.8817 16.0059L25.2062 19.1238C25.5016 19.52 25.6583 20.0023 25.6522 20.4964L25.6043 24.3852C25.598 24.9024 26.1048 25.2707 26.5948 25.1048L30.2785 23.8575C30.7465 23.6991 31.2536 23.6991 31.7216 23.8575L35.4053 25.1048C35.8953 25.2707 36.4021 24.9024 36.3958 24.3852L36.3479 20.4964C36.3418 20.0023 36.4985 19.52 36.7938 19.1238L39.1183 16.0059C39.4275 15.5912 39.2339 14.9953 38.74 14.8415L35.0268 13.6854C34.555 13.5385 34.1447 13.2404 33.8592 12.8371L31.6122 9.66286Z" fill="#5ACE6F"/>
<path d="M30.3879 9.66286C30.6868 9.24064 31.3133 9.24064 31.6122 9.66286L33.8592 12.8371C34.1447 13.2404 34.555 13.5385 35.0268 13.6854L38.74 14.8415C39.2339 14.9953 39.4275 15.5912 39.1183 16.0059L36.7938 19.1238C36.4985 19.52 36.3418 20.0023 36.3479 20.4964L36.3958 24.3852C36.4021 24.9024 35.8953 25.2707 35.4053 25.1048L31.7216 23.8575C31.2536 23.6991 30.7465 23.6991 30.2785 23.8575L26.5948 25.1048C26.1048 25.2707 25.598 24.9024 25.6043 24.3852L25.6522 20.4964C25.6583 20.0023 25.5016 19.52 25.2062 19.1238L22.8817 16.0059C22.5725 15.5912 22.7661 14.9953 23.2601 14.8415L26.9733 13.6854C27.4451 13.5385 27.8554 13.2404 28.1409 12.8371L30.3879 9.66286Z" fill="#5ACE6F"/>
<path d="M7.50334 42.84H18.7453V44.03H7.50334V42.84ZM8.04934 41.23C10.3733 41.048 11.8993 40.236 12.1793 39.284H8.52534V38.108H17.7373V39.284H14.0833C14.3633 40.236 15.8753 41.048 18.2133 41.23L17.7373 42.378C15.5533 42.196 13.8873 41.44 13.1313 40.334C12.3893 41.44 10.7233 42.196 8.51134 42.378L8.04934 41.23ZM8.81934 46.018V44.898H17.3453V47.936H10.3313V48.874H17.7093V50.022H8.84734V46.872H15.8753V46.018H8.81934ZM26.0257 38.976C26.0257 39.648 25.9837 40.306 25.8717 40.95H28.5597V37.674H30.0577V50.12H28.5597V45.542H25.4097V44.324H28.5597V42.154H25.5917C24.9057 44.464 23.3377 46.452 20.4397 47.894L19.6557 46.718C22.7217 45.164 24.2337 43.022 24.4997 40.18H20.2157V38.976H26.0257ZM32.326 38.976H34.916V37.632H36.414V38.976H39.004V40.166H36.414V40.222C36.414 41.566 37.422 42.882 39.354 43.386L38.668 44.562C37.254 44.17 36.246 43.344 35.686 42.28C35.14 43.456 34.104 44.352 32.634 44.786L31.934 43.61C33.866 43.064 34.916 41.692 34.916 40.222V40.166H32.326V38.976ZM33.124 48.93C35.266 48.636 36.652 47.67 36.932 46.606H33.642V45.402H41.902V46.606H38.626C38.892 47.642 40.292 48.65 42.406 48.958L41.86 50.092C39.942 49.826 38.486 48.972 37.772 47.852C37.058 48.972 35.602 49.798 33.684 50.078L33.124 48.93ZM40.208 44.814V37.674H41.706V40.586H43.442V41.818H41.706V44.814H40.208ZM52.9903 37.674H54.5023V50.12H52.9903V37.674ZM44.2823 46.732C47.5303 45.164 49.0283 43.036 49.2803 40.18H44.9123V38.976H50.8203C50.8203 42.7 49.3923 45.836 45.0803 47.922L44.2823 46.732Z" fill="#5ACE6F"/>
</svg>
