<svg width="62" height="54" viewBox="0 0 62 54" fill="none" xmlns="http://www.w3.org/2000/svg">
<path fill-rule="evenodd" clip-rule="evenodd" d="M29.1635 8.79619C30.0601 7.52952 31.9397 7.52953 32.8363 8.79619L35.0834 11.9704C35.1785 12.1049 35.3153 12.2042 35.4726 12.2532L39.1858 13.4093C40.6676 13.8707 41.2484 15.6583 40.3208 16.9024L37.9963 20.0204C37.8978 20.1524 37.8456 20.3132 37.8476 20.4779L37.8955 24.3667C37.9146 25.9185 36.394 27.0233 34.9241 26.5256L31.2404 25.2783C31.0844 25.2255 30.9154 25.2255 30.7594 25.2783L27.0757 26.5256C25.6058 27.0233 24.0852 25.9185 24.1043 24.3667L24.1522 20.4779C24.1542 20.3132 24.102 20.1524 24.0035 20.0204L21.679 16.9024C20.7515 15.6583 21.3323 13.8707 22.814 13.4093L26.5273 12.2532C26.6845 12.2042 26.8213 12.1049 26.9165 11.9704L29.1635 8.79619ZM31.6121 9.66286C31.3132 9.24064 30.6867 9.24064 30.3878 9.66286L28.1407 12.8371C27.8553 13.2404 27.445 13.5385 26.9732 13.6854L23.2599 14.8415C22.766 14.9953 22.5724 15.5912 22.8816 16.0059L25.2061 19.1238C25.5015 19.52 25.6582 20.0023 25.6521 20.4964L25.6042 24.3852C25.5978 24.9024 26.1047 25.2707 26.5947 25.1048L30.2783 23.8575C30.7463 23.6991 31.2535 23.6991 31.7215 23.8575L35.4052 25.1048C35.8951 25.2707 36.402 24.9024 36.3956 24.3852L36.3477 20.4964C36.3417 20.0023 36.4984 19.52 36.7937 19.1238L39.1182 16.0059C39.4274 15.5912 39.2338 14.9953 38.7399 14.8415L35.0266 13.6854C34.5549 13.5385 34.1446 13.2404 33.8591 12.8371L31.6121 9.66286Z" fill="#1A1A1A"/>
<path fill-rule="evenodd" clip-rule="evenodd" d="M29.1635 8.79619C30.0601 7.52952 31.9397 7.52953 32.8363 8.79619L35.0834 11.9704C35.1785 12.1049 35.3153 12.2042 35.4726 12.2532L39.1858 13.4093C40.6676 13.8707 41.2484 15.6583 40.3208 16.9024L37.9963 20.0204C37.8978 20.1524 37.8456 20.3132 37.8476 20.4779L37.8955 24.3667C37.9146 25.9185 36.394 27.0233 34.9241 26.5256L31.2404 25.2783C31.0844 25.2255 30.9154 25.2255 30.7594 25.2783L27.0757 26.5256C25.6058 27.0233 24.0852 25.9185 24.1043 24.3667L24.1522 20.4779C24.1542 20.3132 24.102 20.1524 24.0035 20.0204L21.679 16.9024C20.7515 15.6583 21.3323 13.8707 22.814 13.4093L26.5273 12.2532C26.6845 12.2042 26.8213 12.1049 26.9165 11.9704L29.1635 8.79619ZM31.6121 9.66286C31.3132 9.24064 30.6867 9.24064 30.3878 9.66286L28.1407 12.8371C27.8553 13.2404 27.445 13.5385 26.9732 13.6854L23.2599 14.8415C22.766 14.9953 22.5724 15.5912 22.8816 16.0059L25.2061 19.1238C25.5015 19.52 25.6582 20.0023 25.6521 20.4964L25.6042 24.3852C25.5978 24.9024 26.1047 25.2707 26.5947 25.1048L30.2783 23.8575C30.7463 23.6991 31.2535 23.6991 31.7215 23.8575L35.4052 25.1048C35.8951 25.2707 36.402 24.9024 36.3956 24.3852L36.3477 20.4964C36.3417 20.0023 36.4984 19.52 36.7937 19.1238L39.1182 16.0059C39.4274 15.5912 39.2338 14.9953 38.7399 14.8415L35.0266 13.6854C34.5549 13.5385 34.1446 13.2404 33.8591 12.8371L31.6121 9.66286Z" fill="white" fill-opacity="0.8"/>
<path d="M7.58734 43.022H18.6473V43.876H7.58734V43.022ZM8.18934 41.566C10.3313 41.37 12.4173 40.418 12.5153 39.102H8.60934V38.248H17.6533V39.102H13.7333C13.8313 40.404 15.9173 41.37 18.0593 41.566L17.7093 42.378C15.7493 42.168 13.8733 41.398 13.1313 40.166C12.4033 41.398 10.5133 42.168 8.53934 42.378L8.18934 41.566ZM8.93134 45.85V45.038H17.2193V47.782H9.99534V49.056H17.5973V49.882H8.97334V46.998H16.1973V45.85H8.93134ZM25.9697 39.088C25.9697 39.788 25.9137 40.474 25.7737 41.146H28.8117V37.758H29.8477V50.008H28.8117V45.29H25.3817V44.422H28.8117V42H25.5637C24.8637 44.282 23.2537 46.27 20.3837 47.684L19.8377 46.858C23.0717 45.262 24.6957 42.868 24.9197 39.956H20.3557V39.088H25.9697ZM32.41 39.214H35.168V37.716H36.204V39.214H38.948V40.082H36.204V40.32C36.204 41.818 37.436 43.162 39.214 43.68L38.724 44.506C37.324 44.072 36.232 43.148 35.7 41.972C35.182 43.274 34.034 44.268 32.592 44.744L32.088 43.918C33.88 43.372 35.168 41.958 35.168 40.32V40.082H32.41V39.214ZM33.292 49.168C35.252 48.846 37.044 47.754 37.212 46.438H33.782V45.57H41.776V46.438H38.332C38.5 47.726 40.306 48.846 42.238 49.182L41.832 49.98C40.082 49.672 38.472 48.776 37.772 47.558C37.086 48.79 35.462 49.658 33.698 49.98L33.292 49.168ZM40.502 44.898V37.772H41.552V40.824H43.386V41.692H41.552V44.898H40.502ZM53.2703 37.772H54.3203V50.022H53.2703V37.772ZM44.4503 46.872C47.7543 45.29 49.4203 42.896 49.6443 39.956H44.9963V39.088H50.7083C50.7083 42.616 49.0843 45.724 45.0103 47.712L44.4503 46.872Z" fill="#1A1A1A"/>
<path d="M7.58734 43.022H18.6473V43.876H7.58734V43.022ZM8.18934 41.566C10.3313 41.37 12.4173 40.418 12.5153 39.102H8.60934V38.248H17.6533V39.102H13.7333C13.8313 40.404 15.9173 41.37 18.0593 41.566L17.7093 42.378C15.7493 42.168 13.8733 41.398 13.1313 40.166C12.4033 41.398 10.5133 42.168 8.53934 42.378L8.18934 41.566ZM8.93134 45.85V45.038H17.2193V47.782H9.99534V49.056H17.5973V49.882H8.97334V46.998H16.1973V45.85H8.93134ZM25.9697 39.088C25.9697 39.788 25.9137 40.474 25.7737 41.146H28.8117V37.758H29.8477V50.008H28.8117V45.29H25.3817V44.422H28.8117V42H25.5637C24.8637 44.282 23.2537 46.27 20.3837 47.684L19.8377 46.858C23.0717 45.262 24.6957 42.868 24.9197 39.956H20.3557V39.088H25.9697ZM32.41 39.214H35.168V37.716H36.204V39.214H38.948V40.082H36.204V40.32C36.204 41.818 37.436 43.162 39.214 43.68L38.724 44.506C37.324 44.072 36.232 43.148 35.7 41.972C35.182 43.274 34.034 44.268 32.592 44.744L32.088 43.918C33.88 43.372 35.168 41.958 35.168 40.32V40.082H32.41V39.214ZM33.292 49.168C35.252 48.846 37.044 47.754 37.212 46.438H33.782V45.57H41.776V46.438H38.332C38.5 47.726 40.306 48.846 42.238 49.182L41.832 49.98C40.082 49.672 38.472 48.776 37.772 47.558C37.086 48.79 35.462 49.658 33.698 49.98L33.292 49.168ZM40.502 44.898V37.772H41.552V40.824H43.386V41.692H41.552V44.898H40.502ZM53.2703 37.772H54.3203V50.022H53.2703V37.772ZM44.4503 46.872C47.7543 45.29 49.4203 42.896 49.6443 39.956H44.9963V39.088H50.7083C50.7083 42.616 49.0843 45.724 45.0103 47.712L44.4503 46.872Z" fill="white" fill-opacity="0.8"/>
</svg>
