<svg width="62" height="54" viewBox="0 0 62 54" fill="none" xmlns="http://www.w3.org/2000/svg">
<path fill-rule="evenodd" clip-rule="evenodd" d="M38.5 25.5V17.7299C38.5 16.4886 37.7355 15.3755 36.5769 14.9299L33.3789 13.6999C33.0352 13.5678 32.6702 13.5 32.302 13.5H29.5985C29.2247 13.5 28.8542 13.5699 28.506 13.706L25.4075 14.9175C24.2571 15.3673 23.5 16.4763 23.5 17.7115V25.5C23.5 27.1569 24.8431 28.5 26.5 28.5H35.5C37.1569 28.5 38.5 27.1569 38.5 25.5ZM24.8613 13.5205C23.1357 14.1952 22 15.8587 22 17.7115V25.5C22 27.9853 24.0147 30 26.5 30H35.5C37.9853 30 40 27.9853 40 25.5V17.7299C40 15.8679 38.8532 14.1982 37.1153 13.5298L33.9173 12.2999C33.4018 12.1017 32.8543 12 32.302 12H29.5985C29.0378 12 28.482 12.1048 27.9598 12.309L24.8613 13.5205Z" fill="#1A1A1A"/>
<path fill-rule="evenodd" clip-rule="evenodd" d="M38.5 25.5V17.7299C38.5 16.4886 37.7355 15.3755 36.5769 14.9299L33.3789 13.6999C33.0352 13.5678 32.6702 13.5 32.302 13.5H29.5985C29.2247 13.5 28.8542 13.5699 28.506 13.706L25.4075 14.9175C24.2571 15.3673 23.5 16.4763 23.5 17.7115V25.5C23.5 27.1569 24.8431 28.5 26.5 28.5H35.5C37.1569 28.5 38.5 27.1569 38.5 25.5ZM24.8613 13.5205C23.1357 14.1952 22 15.8587 22 17.7115V25.5C22 27.9853 24.0147 30 26.5 30H35.5C37.9853 30 40 27.9853 40 25.5V17.7299C40 15.8679 38.8532 14.1982 37.1153 13.5298L33.9173 12.2999C33.4018 12.1017 32.8543 12 32.302 12H29.5985C29.0378 12 28.482 12.1048 27.9598 12.309L24.8613 13.5205Z" fill="white" fill-opacity="0.8"/>
<path d="M25 20.25C25 19.0074 26.0074 18 27.25 18H34.75C35.9926 18 37 19.0074 37 20.25V20.25C37 21.4926 35.9926 22.5 34.75 22.5H27.25C26.0074 22.5 25 21.4926 25 20.25V20.25Z" fill="#1A1A1A"/>
<path d="M25 20.25C25 19.0074 26.0074 18 27.25 18H34.75C35.9926 18 37 19.0074 37 20.25V20.25C37 21.4926 35.9926 22.5 34.75 22.5H27.25C26.0074 22.5 25 21.4926 25 20.25V20.25Z" fill="white" fill-opacity="0.8"/>
<path d="M25 25.5C25 24.6716 25.6716 24 26.5 24V24C27.3284 24 28 24.6716 28 25.5V25.5C28 26.3284 27.3284 27 26.5 27V27C25.6716 27 25 26.3284 25 25.5V25.5Z" fill="#1A1A1A"/>
<path d="M25 25.5C25 24.6716 25.6716 24 26.5 24V24C27.3284 24 28 24.6716 28 25.5V25.5C28 26.3284 27.3284 27 26.5 27V27C25.6716 27 25 26.3284 25 25.5V25.5Z" fill="white" fill-opacity="0.8"/>
<path d="M34 25.5C34 24.6716 34.6716 24 35.5 24V24C36.3284 24 37 24.6716 37 25.5V25.5C37 26.3284 36.3284 27 35.5 27V27C34.6716 27 34 26.3284 34 25.5V25.5Z" fill="#1A1A1A"/>
<path d="M34 25.5C34 24.6716 34.6716 24 35.5 24V24C36.3284 24 37 24.6716 37 25.5V25.5C37 26.3284 36.3284 27 35.5 27V27C34.6716 27 34 26.3284 34 25.5V25.5Z" fill="white" fill-opacity="0.8"/>
<path fill-rule="evenodd" clip-rule="evenodd" d="M27.5219 8.0339C27.468 8.0878 27.4289 8.17272 27.4435 8.29003C27.5205 8.90813 27.7205 9.54438 28.1365 9.96036C28.5525 10.3763 29.1887 10.5764 29.8068 10.6533C29.9241 10.6679 30.009 10.6289 30.0629 10.575C30.1168 10.5211 30.1559 10.4361 30.1413 10.3188C30.0643 9.70074 29.8643 9.06449 29.4483 8.64851C29.0324 8.23254 28.3961 8.03251 27.778 7.95555C27.6607 7.94094 27.5758 7.98 27.5219 8.0339ZM25.955 8.47537C25.808 7.29448 26.7825 6.32001 27.9633 6.46704C28.7114 6.56019 29.7453 6.82416 30.509 7.58785C31.2727 8.35155 31.5367 9.38543 31.6298 10.1335C31.7768 11.3144 30.8024 12.2889 29.6215 12.1418C28.8734 12.0487 27.8395 11.7847 27.0758 11.021C26.3121 10.2573 26.0482 9.22344 25.955 8.47537Z" fill="#1A1A1A"/>
<path fill-rule="evenodd" clip-rule="evenodd" d="M27.5219 8.0339C27.468 8.0878 27.4289 8.17272 27.4435 8.29003C27.5205 8.90813 27.7205 9.54438 28.1365 9.96036C28.5525 10.3763 29.1887 10.5764 29.8068 10.6533C29.9241 10.6679 30.009 10.6289 30.0629 10.575C30.1168 10.5211 30.1559 10.4361 30.1413 10.3188C30.0643 9.70074 29.8643 9.06449 29.4483 8.64851C29.0324 8.23254 28.3961 8.03251 27.778 7.95555C27.6607 7.94094 27.5758 7.98 27.5219 8.0339ZM25.955 8.47537C25.808 7.29448 26.7825 6.32001 27.9633 6.46704C28.7114 6.56019 29.7453 6.82416 30.509 7.58785C31.2727 8.35155 31.5367 9.38543 31.6298 10.1335C31.7768 11.3144 30.8024 12.2889 29.6215 12.1418C28.8734 12.0487 27.8395 11.7847 27.0758 11.021C26.3121 10.2573 26.0482 9.22344 25.955 8.47537Z" fill="white" fill-opacity="0.8"/>
<path fill-rule="evenodd" clip-rule="evenodd" d="M34.326 8.0339C34.3799 8.08779 34.419 8.17272 34.4044 8.29003C34.3274 8.90813 34.1274 9.54438 33.7114 9.96036C33.2954 10.3763 32.6592 10.5764 32.0411 10.6533C31.9238 10.6679 31.8389 10.6289 31.785 10.575C31.7311 10.5211 31.692 10.4361 31.7066 10.3188C31.7836 9.70074 31.9836 9.06449 32.3996 8.64851C32.8155 8.23254 33.4518 8.03251 34.0699 7.95555C34.1872 7.94094 34.2721 7.98 34.326 8.0339ZM35.8929 8.47537C36.0399 7.29448 35.0654 6.32001 33.8846 6.46704C33.1365 6.56019 32.1026 6.82415 31.3389 7.58785C30.5752 8.35155 30.3112 9.38543 30.2181 10.1335C30.0711 11.3144 31.0455 12.2889 32.2264 12.1418C32.9745 12.0487 34.0084 11.7847 34.7721 11.021C35.5358 10.2573 35.7997 9.22344 35.8929 8.47537Z" fill="#1A1A1A"/>
<path fill-rule="evenodd" clip-rule="evenodd" d="M34.326 8.0339C34.3799 8.08779 34.419 8.17272 34.4044 8.29003C34.3274 8.90813 34.1274 9.54438 33.7114 9.96036C33.2954 10.3763 32.6592 10.5764 32.0411 10.6533C31.9238 10.6679 31.8389 10.6289 31.785 10.575C31.7311 10.5211 31.692 10.4361 31.7066 10.3188C31.7836 9.70074 31.9836 9.06449 32.3996 8.64851C32.8155 8.23254 33.4518 8.03251 34.0699 7.95555C34.1872 7.94094 34.2721 7.98 34.326 8.0339ZM35.8929 8.47537C36.0399 7.29448 35.0654 6.32001 33.8846 6.46704C33.1365 6.56019 32.1026 6.82415 31.3389 7.58785C30.5752 8.35155 30.3112 9.38543 30.2181 10.1335C30.0711 11.3144 31.0455 12.2889 32.2264 12.1418C32.9745 12.0487 34.0084 11.7847 34.7721 11.021C35.5358 10.2573 35.7997 9.22344 35.8929 8.47537Z" fill="white" fill-opacity="0.8"/>
<path fill-rule="evenodd" clip-rule="evenodd" d="M34 15.75C34 16.1642 33.6642 16.5 33.25 16.5H28.75C28.3358 16.5 28 16.1642 28 15.75C28 15.3358 28.3358 15 28.75 15H33.25C33.6642 15 34 15.3358 34 15.75Z" fill="#1A1A1A"/>
<path fill-rule="evenodd" clip-rule="evenodd" d="M34 15.75C34 16.1642 33.6642 16.5 33.25 16.5H28.75C28.3358 16.5 28 16.1642 28 15.75C28 15.3358 28.3358 15 28.75 15H33.25C33.6642 15 34 15.3358 34 15.75Z" fill="white" fill-opacity="0.8"/>
<path d="M14.1675 39.2H18.8015V42.406H20.6775V38.052H21.6715V49.392H20.6775V43.274H18.8015V46.704H14.1675V39.2ZM15.1475 45.878H17.8215V40.04H15.1475V45.878ZM23.0855 50.022V37.772H24.0935V50.022H23.0855ZM34.9018 37.786H35.9658V46.732H34.9018V37.786ZM26.2218 41.65C26.2218 39.872 27.5938 38.64 29.3998 38.64C31.2198 38.64 32.5778 39.872 32.5778 41.65C32.5778 43.4 31.2198 44.646 29.3998 44.646C27.5938 44.646 26.2218 43.4 26.2218 41.65ZM27.2438 41.65C27.2438 42.854 28.1818 43.722 29.3998 43.722C30.6318 43.722 31.5698 42.854 31.5698 41.65C31.5698 40.418 30.6318 39.55 29.3998 39.55C28.1818 39.55 27.2438 40.418 27.2438 41.65ZM28.1398 49.742V45.822H29.1758V48.874H36.3438V49.742H28.1398ZM39.5502 46.368H47.8802V49.854H39.5502V46.368ZM38.1782 45.402V44.562H43.1902V43.582C40.9922 43.512 39.7742 42.91 39.7742 41.86C39.7742 40.726 41.1882 40.124 43.7082 40.124C46.2282 40.124 47.6422 40.726 47.6422 41.86C47.6422 42.91 46.4242 43.512 44.2402 43.582V44.562H49.2382V45.402H38.1782ZM38.7662 39.62V38.794H43.1902V37.576H44.2402V38.794H48.5942V39.62H38.7662ZM40.5722 49.042H46.8582V47.166H40.5722V49.042ZM40.8802 41.86C40.8802 42.49 41.9022 42.854 43.7082 42.854C45.5142 42.854 46.5362 42.49 46.5362 41.86C46.5362 41.23 45.5142 40.866 43.7082 40.866C41.9022 40.866 40.8802 41.23 40.8802 41.86Z" fill="#1A1A1A"/>
<path d="M14.1675 39.2H18.8015V42.406H20.6775V38.052H21.6715V49.392H20.6775V43.274H18.8015V46.704H14.1675V39.2ZM15.1475 45.878H17.8215V40.04H15.1475V45.878ZM23.0855 50.022V37.772H24.0935V50.022H23.0855ZM34.9018 37.786H35.9658V46.732H34.9018V37.786ZM26.2218 41.65C26.2218 39.872 27.5938 38.64 29.3998 38.64C31.2198 38.64 32.5778 39.872 32.5778 41.65C32.5778 43.4 31.2198 44.646 29.3998 44.646C27.5938 44.646 26.2218 43.4 26.2218 41.65ZM27.2438 41.65C27.2438 42.854 28.1818 43.722 29.3998 43.722C30.6318 43.722 31.5698 42.854 31.5698 41.65C31.5698 40.418 30.6318 39.55 29.3998 39.55C28.1818 39.55 27.2438 40.418 27.2438 41.65ZM28.1398 49.742V45.822H29.1758V48.874H36.3438V49.742H28.1398ZM39.5502 46.368H47.8802V49.854H39.5502V46.368ZM38.1782 45.402V44.562H43.1902V43.582C40.9922 43.512 39.7742 42.91 39.7742 41.86C39.7742 40.726 41.1882 40.124 43.7082 40.124C46.2282 40.124 47.6422 40.726 47.6422 41.86C47.6422 42.91 46.4242 43.512 44.2402 43.582V44.562H49.2382V45.402H38.1782ZM38.7662 39.62V38.794H43.1902V37.576H44.2402V38.794H48.5942V39.62H38.7662ZM40.5722 49.042H46.8582V47.166H40.5722V49.042ZM40.8802 41.86C40.8802 42.49 41.9022 42.854 43.7082 42.854C45.5142 42.854 46.5362 42.49 46.5362 41.86C46.5362 41.23 45.5142 40.866 43.7082 40.866C41.9022 40.866 40.8802 41.23 40.8802 41.86Z" fill="white" fill-opacity="0.8"/>
</svg>
