<svg width="62" height="54" viewBox="0 0 62 54" fill="none" xmlns="http://www.w3.org/2000/svg">
<path fill-rule="evenodd" clip-rule="evenodd" d="M38.5 25.5001V17.73C38.5 16.4887 37.7355 15.3756 36.5769 14.93L33.3789 13.7001C33.0352 13.5679 32.6702 13.5001 32.302 13.5001H29.5985C29.2247 13.5001 28.8542 13.57 28.506 13.7061L25.4075 14.9176C24.2571 15.3674 23.5 16.4764 23.5 17.7116V25.5001C23.5 27.157 24.8431 28.5001 26.5 28.5001H35.5C37.1569 28.5001 38.5 27.157 38.5 25.5001ZM24.8613 13.5206C23.1357 14.1953 22 15.8588 22 17.7116V25.5001C22 27.9854 24.0147 30.0001 26.5 30.0001H35.5C37.9853 30.0001 40 27.9854 40 25.5001V17.73C40 15.868 38.8532 14.1983 37.1153 13.53L33.9173 12.3C33.4018 12.1018 32.8543 12.0001 32.302 12.0001H29.5985C29.0378 12.0001 28.482 12.1049 27.9598 12.3091L24.8613 13.5206Z" fill="#5ACE6F"/>
<path d="M25 20.2501C25 19.0075 26.0074 18.0001 27.25 18.0001H34.75C35.9926 18.0001 37 19.0075 37 20.2501V20.2501C37 21.4928 35.9926 22.5001 34.75 22.5001H27.25C26.0074 22.5001 25 21.4928 25 20.2501V20.2501Z" fill="#5ACE6F"/>
<path d="M25 25.5001C25 24.6717 25.6716 24.0001 26.5 24.0001V24.0001C27.3284 24.0001 28 24.6717 28 25.5001V25.5001C28 26.3285 27.3284 27.0001 26.5 27.0001V27.0001C25.6716 27.0001 25 26.3285 25 25.5001V25.5001Z" fill="#5ACE6F"/>
<path d="M34 25.5001C34 24.6717 34.6716 24.0001 35.5 24.0001V24.0001C36.3284 24.0001 37 24.6717 37 25.5001V25.5001C37 26.3285 36.3284 27.0001 35.5 27.0001V27.0001C34.6716 27.0001 34 26.3285 34 25.5001V25.5001Z" fill="#5ACE6F"/>
<path fill-rule="evenodd" clip-rule="evenodd" d="M27.5219 8.03402C27.468 8.08792 27.4289 8.17284 27.4435 8.29015C27.5205 8.90826 27.7205 9.5445 28.1365 9.96048C28.5525 10.3765 29.1887 10.5765 29.8068 10.6534C29.9241 10.668 30.009 10.629 30.0629 10.5751C30.1168 10.5212 30.1559 10.4363 30.1413 10.319C30.0643 9.70086 29.8643 9.06461 29.4483 8.64863C29.0324 8.23266 28.3961 8.03263 27.778 7.95567C27.6607 7.94107 27.5758 7.98012 27.5219 8.03402ZM25.955 8.47549C25.808 7.29461 26.7825 6.32013 27.9633 6.46717C28.7114 6.56031 29.7453 6.82428 30.509 7.58797C31.2727 8.35167 31.5367 9.38555 31.6298 10.1336C31.7768 11.3145 30.8024 12.289 29.6215 12.1419C28.8734 12.0488 27.8395 11.7848 27.0758 11.0211C26.3121 10.2574 26.0482 9.22356 25.955 8.47549Z" fill="#5ACE6F"/>
<path fill-rule="evenodd" clip-rule="evenodd" d="M34.326 8.03402C34.3799 8.08792 34.419 8.17284 34.4044 8.29015C34.3274 8.90826 34.1274 9.5445 33.7114 9.96048C33.2954 10.3765 32.6592 10.5765 32.0411 10.6534C31.9238 10.668 31.8389 10.629 31.785 10.5751C31.7311 10.5212 31.692 10.4363 31.7066 10.319C31.7836 9.70086 31.9836 9.06461 32.3996 8.64863C32.8155 8.23266 33.4518 8.03263 34.0699 7.95567C34.1872 7.94107 34.2721 7.98012 34.326 8.03402ZM35.8929 8.47549C36.0399 7.29461 35.0654 6.32013 33.8846 6.46717C33.1365 6.56031 32.1026 6.82428 31.3389 7.58797C30.5752 8.35167 30.3112 9.38555 30.2181 10.1336C30.0711 11.3145 31.0455 12.289 32.2264 12.1419C32.9745 12.0488 34.0084 11.7848 34.7721 11.0211C35.5358 10.2574 35.7997 9.22356 35.8929 8.47549Z" fill="#5ACE6F"/>
<path fill-rule="evenodd" clip-rule="evenodd" d="M34 15.7501C34 16.1643 33.6642 16.5001 33.25 16.5001H28.75C28.3358 16.5001 28 16.1643 28 15.7501C28 15.3359 28.3358 15.0001 28.75 15.0001H33.25C33.6642 15.0001 34 15.3359 34 15.7501Z" fill="#5ACE6F"/>
<path d="M14.0275 39.018H18.8575V42.266H20.3275V37.912H21.7275V49.532H20.3275V43.484H18.8575V46.914H14.0275V39.018ZM15.4275 45.738H17.4575V40.208H15.4275V45.738ZM22.8195 50.12V37.674H24.2615V50.12H22.8195ZM34.6218 37.688H36.1338V46.676H34.6218V37.688ZM26.0818 41.622C26.0818 39.788 27.5238 38.5 29.3998 38.5C31.2898 38.5 32.7178 39.788 32.7178 41.622C32.7178 43.428 31.2898 44.73 29.3998 44.73C27.5238 44.73 26.0818 43.428 26.0818 41.622ZM27.5518 41.622C27.5518 42.714 28.3498 43.414 29.3998 43.414C30.4498 43.414 31.2618 42.714 31.2618 41.622C31.2618 40.502 30.4498 39.802 29.3998 39.802C28.3498 39.802 27.5518 40.502 27.5518 41.622ZM27.9858 49.882V45.78H29.4838V48.664H36.4838V49.882H27.9858ZM39.4382 46.368H47.9782V49.966H39.4382V46.368ZM38.0942 45.598V44.422H42.9662V43.666C40.8102 43.554 39.6202 42.966 39.6202 41.916C39.6202 40.754 41.0902 40.138 43.7222 40.138C46.3542 40.138 47.8102 40.754 47.8102 41.916C47.8102 42.966 46.6342 43.554 44.4782 43.666V44.422H49.3362V45.598H38.0942ZM38.6542 39.76V38.612H42.9662V37.534H44.4782V38.612H48.7342V39.76H38.6542ZM40.9082 48.846H46.5082V47.488H40.9082V48.846ZM41.2162 41.916C41.2162 42.406 42.0562 42.658 43.7222 42.658C45.3742 42.658 46.2142 42.406 46.2142 41.916C46.2142 41.412 45.3742 41.174 43.7222 41.174C42.0562 41.174 41.2162 41.412 41.2162 41.916Z" fill="#5ACE6F"/>
</svg>
