<svg width="62" height="54" viewBox="0 0 62 54" fill="none" xmlns="http://www.w3.org/2000/svg">
<path fill-rule="evenodd" clip-rule="evenodd" d="M34 9H28C24.6863 9 22 11.6863 22 15V21C22 24.3137 24.6863 27 28 27H34C37.3137 27 40 24.3137 40 21V15C40 11.6863 37.3137 9 34 9ZM28 7.5C23.8579 7.5 20.5 10.8579 20.5 15V21C20.5 25.1421 23.8579 28.5 28 28.5H34C38.1421 28.5 41.5 25.1421 41.5 21V15C41.5 10.8579 38.1421 7.5 34 7.5H28Z" fill="#1A1A1A"/>
<path fill-rule="evenodd" clip-rule="evenodd" d="M34 9H28C24.6863 9 22 11.6863 22 15V21C22 24.3137 24.6863 27 28 27H34C37.3137 27 40 24.3137 40 21V15C40 11.6863 37.3137 9 34 9ZM28 7.5C23.8579 7.5 20.5 10.8579 20.5 15V21C20.5 25.1421 23.8579 28.5 28 28.5H34C38.1421 28.5 41.5 25.1421 41.5 21V15C41.5 10.8579 38.1421 7.5 34 7.5H28Z" fill="white" fill-opacity="0.8"/>
<path fill-rule="evenodd" clip-rule="evenodd" d="M27.25 15C27.25 12.9289 28.9289 11.25 31 11.25C33.0711 11.25 34.75 12.9289 34.75 15C34.75 17.0711 33.0711 18.75 31 18.75C28.9289 18.75 27.25 17.0711 27.25 15ZM31 12.75C29.7574 12.75 28.75 13.7574 28.75 15C28.75 16.2426 29.7574 17.25 31 17.25C32.2426 17.25 33.25 16.2426 33.25 15C33.25 13.7574 32.2426 12.75 31 12.75Z" fill="#1A1A1A"/>
<path fill-rule="evenodd" clip-rule="evenodd" d="M27.25 15C27.25 12.9289 28.9289 11.25 31 11.25C33.0711 11.25 34.75 12.9289 34.75 15C34.75 17.0711 33.0711 18.75 31 18.75C28.9289 18.75 27.25 17.0711 27.25 15ZM31 12.75C29.7574 12.75 28.75 13.7574 28.75 15C28.75 16.2426 29.7574 17.25 31 17.25C32.2426 17.25 33.25 16.2426 33.25 15C33.25 13.7574 32.2426 12.75 31 12.75Z" fill="white" fill-opacity="0.8"/>
<path fill-rule="evenodd" clip-rule="evenodd" d="M31 18.75C28.4089 18.75 26.5522 19.6583 25.818 20.5417C25.7903 20.5751 25.75 20.6566 25.75 20.8155V22.5C25.75 22.9142 26.0858 23.25 26.5 23.25H35.5C35.9142 23.25 36.25 22.9142 36.25 22.5V20.8155C36.25 20.6566 36.2097 20.5751 36.182 20.5417C35.4478 19.6583 33.5911 18.75 31 18.75ZM24.6644 19.583C25.7784 18.2425 28.1365 17.25 31 17.25C33.8635 17.25 36.2216 18.2425 37.3356 19.583C37.6555 19.9678 37.75 20.4306 37.75 20.8155V22.5C37.75 23.7426 36.7426 24.75 35.5 24.75H26.5C25.2574 24.75 24.25 23.7426 24.25 22.5V20.8155C24.25 20.4306 24.3445 19.9678 24.6644 19.583Z" fill="#1A1A1A"/>
<path fill-rule="evenodd" clip-rule="evenodd" d="M31 18.75C28.4089 18.75 26.5522 19.6583 25.818 20.5417C25.7903 20.5751 25.75 20.6566 25.75 20.8155V22.5C25.75 22.9142 26.0858 23.25 26.5 23.25H35.5C35.9142 23.25 36.25 22.9142 36.25 22.5V20.8155C36.25 20.6566 36.2097 20.5751 36.182 20.5417C35.4478 19.6583 33.5911 18.75 31 18.75ZM24.6644 19.583C25.7784 18.2425 28.1365 17.25 31 17.25C33.8635 17.25 36.2216 18.2425 37.3356 19.583C37.6555 19.9678 37.75 20.4306 37.75 20.8155V22.5C37.75 23.7426 36.7426 24.75 35.5 24.75H26.5C25.2574 24.75 24.25 23.7426 24.25 22.5V20.8155C24.25 20.4306 24.3445 19.9678 24.6644 19.583Z" fill="white" fill-opacity="0.8"/>
<path d="M23.0575 37.772H24.0655V50.022H23.0575V43.666H21.2655V49.378H20.2855V38.052H21.2655V42.784H23.0575V37.772ZM14.3215 46.83V39.27H15.3575V45.906C16.5615 45.892 17.8775 45.808 19.3755 45.514L19.5015 46.438C17.8215 46.76 16.4215 46.83 15.0915 46.83H14.3215ZM32.4518 40.978H34.9438V37.772H35.9938V45.066H34.9438V41.846H32.4518V40.978ZM25.9978 44.114C27.7898 43.456 29.0918 41.804 29.0918 40.026V39.55H26.3198V38.682H32.8578V39.55H30.1418V40.026C30.1418 41.622 31.3738 43.148 33.1378 43.764L32.5918 44.604C31.2198 44.1 30.1558 43.064 29.6378 41.79C29.1198 43.246 27.9718 44.394 26.5298 44.954L25.9978 44.114ZM27.9018 47.74C27.9018 46.312 29.4418 45.458 31.9758 45.458C34.4958 45.458 36.0358 46.312 36.0358 47.74C36.0358 49.182 34.4958 50.008 31.9758 50.008C29.4418 50.008 27.9018 49.182 27.9018 47.74ZM28.9518 47.74C28.9518 48.636 30.0998 49.182 31.9758 49.182C33.8378 49.182 34.9998 48.636 34.9998 47.74C34.9998 46.83 33.8378 46.284 31.9758 46.284C30.0998 46.284 28.9518 46.83 28.9518 47.74ZM38.1782 47.558H43.1902V44.884H39.5082V38.64H40.5442V40.852H46.9002V38.64H47.9362V44.884H44.2262V47.558H49.2802V48.44H38.1782V47.558ZM40.5442 44.03H46.9002V41.72H40.5442V44.03Z" fill="#1A1A1A"/>
<path d="M23.0575 37.772H24.0655V50.022H23.0575V43.666H21.2655V49.378H20.2855V38.052H21.2655V42.784H23.0575V37.772ZM14.3215 46.83V39.27H15.3575V45.906C16.5615 45.892 17.8775 45.808 19.3755 45.514L19.5015 46.438C17.8215 46.76 16.4215 46.83 15.0915 46.83H14.3215ZM32.4518 40.978H34.9438V37.772H35.9938V45.066H34.9438V41.846H32.4518V40.978ZM25.9978 44.114C27.7898 43.456 29.0918 41.804 29.0918 40.026V39.55H26.3198V38.682H32.8578V39.55H30.1418V40.026C30.1418 41.622 31.3738 43.148 33.1378 43.764L32.5918 44.604C31.2198 44.1 30.1558 43.064 29.6378 41.79C29.1198 43.246 27.9718 44.394 26.5298 44.954L25.9978 44.114ZM27.9018 47.74C27.9018 46.312 29.4418 45.458 31.9758 45.458C34.4958 45.458 36.0358 46.312 36.0358 47.74C36.0358 49.182 34.4958 50.008 31.9758 50.008C29.4418 50.008 27.9018 49.182 27.9018 47.74ZM28.9518 47.74C28.9518 48.636 30.0998 49.182 31.9758 49.182C33.8378 49.182 34.9998 48.636 34.9998 47.74C34.9998 46.83 33.8378 46.284 31.9758 46.284C30.0998 46.284 28.9518 46.83 28.9518 47.74ZM38.1782 47.558H43.1902V44.884H39.5082V38.64H40.5442V40.852H46.9002V38.64H47.9362V44.884H44.2262V47.558H49.2802V48.44H38.1782V47.558ZM40.5442 44.03H46.9002V41.72H40.5442V44.03Z" fill="white" fill-opacity="0.8"/>
</svg>
