<svg width="62" height="54" viewBox="0 0 62 54" fill="none" xmlns="http://www.w3.org/2000/svg">
<path fill-rule="evenodd" clip-rule="evenodd" d="M34 9H28C24.6863 9 22 11.6863 22 15V21C22 24.3137 24.6863 27 28 27H34C37.3137 27 40 24.3137 40 21V15C40 11.6863 37.3137 9 34 9ZM28 7.5C23.8579 7.5 20.5 10.8579 20.5 15V21C20.5 25.1421 23.8579 28.5 28 28.5H34C38.1421 28.5 41.5 25.1421 41.5 21V15C41.5 10.8579 38.1421 7.5 34 7.5H28Z" fill="#5ACE6F"/>
<path fill-rule="evenodd" clip-rule="evenodd" d="M27.25 15C27.25 12.9289 28.9289 11.25 31 11.25C33.0711 11.25 34.75 12.9289 34.75 15C34.75 17.0711 33.0711 18.75 31 18.75C28.9289 18.75 27.25 17.0711 27.25 15ZM31 12.75C29.7574 12.75 28.75 13.7574 28.75 15C28.75 16.2426 29.7574 17.25 31 17.25C32.2426 17.25 33.25 16.2426 33.25 15C33.25 13.7574 32.2426 12.75 31 12.75Z" fill="#5ACE6F"/>
<path fill-rule="evenodd" clip-rule="evenodd" d="M31 18.75C28.4089 18.75 26.5522 19.6583 25.818 20.5417C25.7903 20.5751 25.75 20.6566 25.75 20.8155V22.5C25.75 22.9142 26.0858 23.25 26.5 23.25H35.5C35.9142 23.25 36.25 22.9142 36.25 22.5V20.8155C36.25 20.6566 36.2097 20.5751 36.182 20.5417C35.4478 19.6583 33.5911 18.75 31 18.75ZM24.6644 19.583C25.7784 18.2425 28.1365 17.25 31 17.25C33.8635 17.25 36.2216 18.2425 37.3356 19.583C37.6555 19.9678 37.75 20.4306 37.75 20.8155V22.5C37.75 23.7426 36.7426 24.75 35.5 24.75H26.5C25.2574 24.75 24.25 23.7426 24.25 22.5V20.8155C24.25 20.4306 24.3445 19.9678 24.6644 19.583Z" fill="#5ACE6F"/>
<path d="M22.7915 37.674H24.2195V50.12H22.7915V43.806H21.4055V49.504H19.9915V37.912H21.4055V42.588H22.7915V37.674ZM14.1675 47.012V39.102H15.6655V45.696C16.7295 45.682 17.9055 45.584 19.2075 45.332L19.3615 46.634C17.7095 46.942 16.2815 47.012 14.9935 47.012H14.1675ZM32.5358 40.782H34.6778V37.674H36.1898V45.066H34.6778V42.014H32.5358V40.782ZM25.8298 43.834C27.7898 43.148 28.8538 41.482 28.8538 39.802V39.704H26.2638V38.5H32.9278V39.704H30.3798V39.802C30.3798 41.328 31.3738 42.868 33.2778 43.512L32.5358 44.702C31.1638 44.226 30.1838 43.274 29.6518 42.098C29.1058 43.442 28.0698 44.52 26.5998 45.038L25.8298 43.834ZM27.8038 47.768C27.8038 46.284 29.4138 45.402 32.0318 45.402C34.6358 45.402 36.2318 46.284 36.2318 47.768C36.2318 49.266 34.6358 50.12 32.0318 50.12C29.4138 50.12 27.8038 49.266 27.8038 47.768ZM29.3158 47.768C29.3158 48.552 30.2958 48.972 32.0318 48.972C33.7538 48.972 34.7338 48.552 34.7338 47.768C34.7338 46.97 33.7538 46.55 32.0318 46.55C30.2958 46.55 29.3158 46.97 29.3158 47.768ZM38.0942 47.376H42.9662V44.912H39.3542V38.5H40.8382V40.544H46.6062V38.5H48.0902V44.912H44.4642V47.376H49.3642V48.608H38.0942V47.376ZM40.8382 43.722H46.6062V41.734H40.8382V43.722Z" fill="#5ACE6F"/>
</svg>
