<svg width="62" height="54" viewBox="0 0 62 54" fill="none" xmlns="http://www.w3.org/2000/svg">
<path fill-rule="evenodd" clip-rule="evenodd" d="M22 18C22 22.9706 26.0294 27 31 27C35.9706 27 40 22.9706 40 18C40 13.0294 35.9706 9 31 9C26.0294 9 22 13.0294 22 18ZM31 7.5C25.201 7.5 20.5 12.201 20.5 18C20.5 23.799 25.201 28.5 31 28.5C36.799 28.5 41.5 23.799 41.5 18C41.5 12.201 36.799 7.5 31 7.5Z" fill="#5ACE6F"/>
<path d="M29.5 18C29.5 17.1716 30.1716 16.5 31 16.5V16.5C31.8284 16.5 32.5 17.1716 32.5 18V22.5C32.5 23.3284 31.8284 24 31 24V24C30.1716 24 29.5 23.3284 29.5 22.5V18Z" fill="#5ACE6F"/>
<path d="M28.7485 17.25C28.7485 16.8358 29.0843 16.5 29.4985 16.5H31V18H29.4985C29.0843 18 28.7485 17.6642 28.7485 17.25V17.25Z" fill="#5ACE6F"/>
<path d="M28.7485 23.25C28.7485 22.8358 29.0843 22.5 29.4985 22.5H31V24H29.4985C29.0843 24 28.7485 23.6642 28.7485 23.25V23.25Z" fill="#5ACE6F"/>
<path d="M31 22.5H32.4979C32.9121 22.5 33.2479 22.8358 33.2479 23.25V23.25C33.2479 23.6642 32.9121 24 32.4979 24H31V22.5Z" fill="#5ACE6F"/>
<path d="M32.5 13.5C32.5 14.3284 31.8284 15 31 15C30.1716 15 29.5 14.3284 29.5 13.5C29.5 12.6716 30.1716 12 31 12C31.8284 12 32.5 12.6716 32.5 13.5Z" fill="#5ACE6F"/>
<path d="M1.26318 38.892H8.24918V40.152H5.51918V41.23C5.51918 43.288 6.73718 45.43 8.71118 46.256L7.87118 47.446C6.42918 46.802 5.35118 45.486 4.77718 43.904C4.21718 45.612 3.12518 47.068 1.66918 47.754L0.81518 46.578C2.77518 45.668 3.99318 43.344 3.99318 41.23V40.152H1.26318V38.892ZM9.62118 50.12V37.674H11.1332V50.12H9.62118ZM21.2975 37.674H22.8095V42.644H24.6995V43.89H22.8095V50.12H21.2975V37.674ZM13.0515 40.782V39.578H15.9775V37.856H17.5035V39.578H20.3595V40.782H13.0515ZM13.6395 44.548C13.6395 42.84 14.9695 41.636 16.7475 41.636C18.5395 41.636 19.8415 42.84 19.8415 44.548C19.8415 46.27 18.5395 47.474 16.7475 47.474C14.9695 47.474 13.6395 46.27 13.6395 44.548ZM15.0815 44.548C15.0815 45.584 15.7675 46.242 16.7475 46.242C17.6995 46.242 18.3995 45.584 18.3995 44.548C18.3995 43.526 17.6995 42.868 16.7475 42.868C15.7675 42.868 15.0815 43.526 15.0815 44.548ZM25.6938 38.78H28.2838V37.632H29.7818V38.78H32.3718V39.984H29.7818V40.124C29.7818 41.342 30.8878 42.49 32.8058 42.91L32.1618 44.044C30.7198 43.708 29.6418 42.966 29.0678 41.986C28.5078 43.078 27.4438 43.904 25.9318 44.268L25.2598 43.12C27.2198 42.644 28.2838 41.44 28.2838 40.124V39.984H25.6938V38.78ZM27.5558 45.836V44.674H35.6758V47.852H29.0678V48.86H36.0958V50.022H27.5698V46.76H34.1918V45.836H27.5558ZM32.0218 41.86V40.656H34.1778V37.674H35.6758V44.156H34.1778V41.86H32.0218ZM44.2722 40.782H46.4142V37.674H47.9262V45.066H46.4142V42.014H44.2722V40.782ZM37.5662 43.834C39.5262 43.148 40.5902 41.482 40.5902 39.802V39.704H38.0002V38.5H44.6642V39.704H42.1162V39.802C42.1162 41.328 43.1102 42.868 45.0142 43.512L44.2722 44.702C42.9002 44.226 41.9202 43.274 41.3882 42.098C40.8422 43.442 39.8062 44.52 38.3362 45.038L37.5662 43.834ZM39.5402 47.768C39.5402 46.284 41.1502 45.402 43.7682 45.402C46.3722 45.402 47.9682 46.284 47.9682 47.768C47.9682 49.266 46.3722 50.12 43.7682 50.12C41.1502 50.12 39.5402 49.266 39.5402 47.768ZM41.0522 47.768C41.0522 48.552 42.0322 48.972 43.7682 48.972C45.4902 48.972 46.4702 48.552 46.4702 47.768C46.4702 46.97 45.4902 46.55 43.7682 46.55C42.0322 46.55 41.0522 46.97 41.0522 47.768ZM49.8305 47.376H54.7025V44.912H51.0905V38.5H52.5745V40.544H58.3425V38.5H59.8265V44.912H56.2005V47.376H61.1005V48.608H49.8305V47.376ZM52.5745 43.722H58.3425V41.734H52.5745V43.722Z" fill="#5ACE6F"/>
</svg>
