<svg width="100" height="100" viewBox="0 0 100 100" fill="none" xmlns="http://www.w3.org/2000/svg">
<path d="M0 25C0 11.1929 11.1929 0 25 0H75C88.8071 0 100 11.1929 100 25V75C100 88.8071 88.8071 100 75 100H25C11.1929 100 0 88.8071 0 75V25Z" fill="white"/>
<path fill-rule="evenodd" clip-rule="evenodd" d="M37.8738 74.3116C38.7706 74.8294 39.0778 75.9761 38.5601 76.8729L31.6851 88.7808C31.1673 89.6776 30.0206 89.9849 29.1238 89.4671C28.227 88.9493 27.9197 87.8026 28.4375 86.9058L35.3125 74.9979C35.8302 74.1011 36.977 73.7939 37.8738 74.3116Z" fill="#A3A3A3"/>
<path fill-rule="evenodd" clip-rule="evenodd" d="M62.1262 74.3116C61.2294 74.8294 60.9222 75.9761 61.4399 76.8729L68.3149 88.7808C68.8327 89.6776 69.9794 89.9849 70.8762 89.4671C71.773 88.9493 72.0803 87.8026 71.5625 86.9058L64.6875 74.9979C64.1698 74.1011 63.023 73.7939 62.1262 74.3116Z" fill="#A3A3A3"/>
<path fill-rule="evenodd" clip-rule="evenodd" d="M65.625 80C65.625 81.0355 64.7855 81.875 63.75 81.875H36.25C35.2145 81.875 34.375 81.0355 34.375 80C34.375 78.9645 35.2145 78.125 36.25 78.125H63.75C64.7855 78.125 65.625 78.9645 65.625 80Z" fill="#A3A3A3"/>
<path fill-rule="evenodd" clip-rule="evenodd" d="M68.75 85.625C68.75 86.6605 67.9105 87.5 66.875 87.5H33.125C32.0895 87.5 31.25 86.6605 31.25 85.625C31.25 84.5895 32.0895 83.75 33.125 83.75H66.875C67.9105 83.75 68.75 84.5895 68.75 85.625Z" fill="#A3A3A3"/>
<path d="M23.75 43.408C23.75 38.1494 27.0412 33.4531 31.9841 31.6584L41.3705 28.2505C42.738 27.754 44.1817 27.5 45.6365 27.5H54.0693C55.502 27.5 56.9241 27.7463 58.2733 28.2281L67.954 31.6853C72.929 33.462 76.25 38.1744 76.25 43.4572V63.75C76.25 70.6536 70.6536 76.25 63.75 76.25H36.25C29.3464 76.25 23.75 70.6536 23.75 63.75V43.408Z" fill="#5ACE6F"/>
<path d="M32.5 45C32.5 42.2386 34.7386 40 37.5 40H62.5C65.2614 40 67.5 42.2386 67.5 45V52.5C67.5 55.2614 65.2614 57.5 62.5 57.5H37.5C34.7386 57.5 32.5 55.2614 32.5 52.5V45Z" fill="white"/>
<path d="M32.5 65.625C32.5 63.2088 34.4588 61.25 36.875 61.25C39.2912 61.25 41.25 63.2088 41.25 65.625C41.25 68.0412 39.2912 70 36.875 70C34.4588 70 32.5 68.0412 32.5 65.625Z" fill="#FFE038"/>
<path d="M58.75 65.625C58.75 63.2088 60.7088 61.25 63.125 61.25C65.5412 61.25 67.5 63.2088 67.5 65.625C67.5 68.0412 65.5412 70 63.125 70C60.7088 70 58.75 68.0412 58.75 65.625Z" fill="#FFE038"/>
<path fill-rule="evenodd" clip-rule="evenodd" d="M56.25 35.625C56.25 36.6605 55.4105 37.5 54.375 37.5H45.625C44.5895 37.5 43.75 36.6605 43.75 35.625C43.75 34.5895 44.5895 33.75 45.625 33.75H54.375C55.4105 33.75 56.25 34.5895 56.25 35.625Z" fill="white"/>
<path fill-rule="evenodd" clip-rule="evenodd" d="M50 21.875C51.0355 21.875 51.875 22.7145 51.875 23.75L51.875 27.5C51.875 28.5355 51.0355 29.375 50 29.375C48.9645 29.375 48.125 28.5355 48.125 27.5L48.125 23.75C48.125 22.7145 48.9645 21.875 50 21.875Z" fill="#5ACE6F"/>
<path d="M47.5662 13.2853C50.2529 15.9721 50.4861 20.3402 50.4424 22.2903C50.4293 22.8745 49.9758 23.328 49.3917 23.3411C47.4415 23.3848 43.0734 23.1515 40.3867 20.4648C37.7 17.7781 37.4667 13.41 37.5105 11.4599C37.5235 10.8757 37.977 10.4222 38.5612 10.4091C40.5114 10.3654 44.8795 10.5986 47.5662 13.2853Z" fill="#57EE72"/>
<path d="M52.0378 13.2853C49.3511 15.9721 49.1179 20.3402 49.1616 22.2903C49.1747 22.8745 49.6282 23.328 50.2124 23.3411C52.1625 23.3848 56.5306 23.1515 59.2173 20.4648C61.904 17.7781 62.1373 13.41 62.0935 11.4599C62.0805 10.8757 61.627 10.4222 61.0428 10.4091C59.0926 10.3654 54.7245 10.5986 52.0378 13.2853Z" fill="#5ACE6F"/>
</svg>
