<svg width="40" height="40" viewBox="0 0 40 40" fill="none" xmlns="http://www.w3.org/2000/svg">
<path fill-rule="evenodd" clip-rule="evenodd" d="M23.333 10H16.6663C12.9844 10 9.99967 12.9848 9.99967 16.6667V23.3334C9.99967 27.0153 12.9844 30 16.6663 30H23.333C27.0149 30 29.9997 27.0153 29.9997 23.3334V16.6667C29.9997 12.9848 27.0149 10 23.333 10ZM16.6663 8.33337C12.064 8.33337 8.33301 12.0643 8.33301 16.6667V23.3334C8.33301 27.9357 12.064 31.6667 16.6663 31.6667H23.333C27.9354 31.6667 31.6663 27.9357 31.6663 23.3334V16.6667C31.6663 12.0643 27.9354 8.33337 23.333 8.33337H16.6663Z" fill="#1A1A1A"/>
<path fill-rule="evenodd" clip-rule="evenodd" d="M23.333 10H16.6663C12.9844 10 9.99967 12.9848 9.99967 16.6667V23.3334C9.99967 27.0153 12.9844 30 16.6663 30H23.333C27.0149 30 29.9997 27.0153 29.9997 23.3334V16.6667C29.9997 12.9848 27.0149 10 23.333 10ZM16.6663 8.33337C12.064 8.33337 8.33301 12.0643 8.33301 16.6667V23.3334C8.33301 27.9357 12.064 31.6667 16.6663 31.6667H23.333C27.9354 31.6667 31.6663 27.9357 31.6663 23.3334V16.6667C31.6663 12.0643 27.9354 8.33337 23.333 8.33337H16.6663Z" fill="white" fill-opacity="0.8"/>
<path fill-rule="evenodd" clip-rule="evenodd" d="M15 19.9693C15 19.5091 15.3731 19.136 15.8333 19.136H24.1667C24.6269 19.136 25 19.5091 25 19.9693C25 20.4296 24.6269 20.8027 24.1667 20.8027H15.8333C15.3731 20.8027 15 20.4296 15 19.9693Z" fill="#1A1A1A"/>
<path fill-rule="evenodd" clip-rule="evenodd" d="M15 19.9693C15 19.5091 15.3731 19.136 15.8333 19.136H24.1667C24.6269 19.136 25 19.5091 25 19.9693C25 20.4296 24.6269 20.8027 24.1667 20.8027H15.8333C15.3731 20.8027 15 20.4296 15 19.9693Z" fill="white" fill-opacity="0.8"/>
<path fill-rule="evenodd" clip-rule="evenodd" d="M20.0304 15C20.4907 15 20.8638 15.3731 20.8638 15.8333L20.8638 24.1667C20.8638 24.6269 20.4907 25 20.0304 25C19.5702 25 19.1971 24.6269 19.1971 24.1667L19.1971 15.8333C19.1971 15.3731 19.5702 15 20.0304 15Z" fill="#1A1A1A"/>
<path fill-rule="evenodd" clip-rule="evenodd" d="M20.0304 15C20.4907 15 20.8638 15.3731 20.8638 15.8333L20.8638 24.1667C20.8638 24.6269 20.4907 25 20.0304 25C19.5702 25 19.1971 24.6269 19.1971 24.1667L19.1971 15.8333C19.1971 15.3731 19.5702 15 20.0304 15Z" fill="white" fill-opacity="0.8"/>
</svg>
