<svg width="30" height="30" viewBox="0 0 30 30" fill="none" xmlns="http://www.w3.org/2000/svg">
<path fill-rule="evenodd" clip-rule="evenodd" d="M17.5 7.5H12.5C9.73858 7.5 7.5 9.73858 7.5 12.5V17.5C7.5 20.2614 9.73858 22.5 12.5 22.5H17.5C20.2614 22.5 22.5 20.2614 22.5 17.5V12.5C22.5 9.73858 20.2614 7.5 17.5 7.5ZM12.5 6.25C9.04822 6.25 6.25 9.04822 6.25 12.5V17.5C6.25 20.9518 9.04822 23.75 12.5 23.75H17.5C20.9518 23.75 23.75 20.9518 23.75 17.5V12.5C23.75 9.04822 20.9518 6.25 17.5 6.25H12.5Z" fill="#1A1A1A"/>
<path fill-rule="evenodd" clip-rule="evenodd" d="M19.5376 19.7291C19.7924 19.4961 19.8101 19.1008 19.5772 18.8461L17.9611 17.0783C17.7282 16.8235 17.3328 16.8058 17.0781 17.0387C16.8233 17.2716 16.8056 17.6669 17.0385 17.9217L18.6546 19.6895C18.8875 19.9442 19.2828 19.962 19.5376 19.7291Z" fill="#1A1A1A"/>
<path fill-rule="evenodd" clip-rule="evenodd" d="M11.25 14.375C11.25 16.1009 12.6491 17.5 14.375 17.5C16.1009 17.5 17.5 16.1009 17.5 14.375C17.5 12.6491 16.1009 11.25 14.375 11.25C12.6491 11.25 11.25 12.6491 11.25 14.375ZM14.375 10C11.9588 10 10 11.9588 10 14.375C10 16.7912 11.9588 18.75 14.375 18.75C16.7912 18.75 18.75 16.7912 18.75 14.375C18.75 11.9588 16.7912 10 14.375 10Z" fill="#1A1A1A"/>
</svg>
