<svg width="30" height="30" viewBox="0 0 30 30" fill="none" xmlns="http://www.w3.org/2000/svg">
<path fill-rule="evenodd" clip-rule="evenodd" d="M15.151 17.8197C15.9405 17.8197 16.5806 18.4835 16.5806 19.3023V22.2674C16.5806 23.0862 15.9405 23.75 15.151 23.75C14.3615 23.75 13.7214 23.0862 13.7214 22.2674V19.3023C13.7214 18.4835 14.3615 17.8197 15.151 17.8197Z" fill="#5ACE6F"/>
<path d="M13.2953 11.0278C15.3438 13.1522 15.5216 16.606 15.4883 18.148C15.4783 18.61 15.1325 18.9685 14.6871 18.9789C13.2003 19.0134 9.86983 18.829 7.82135 16.7046C5.77287 14.5802 5.59504 11.1263 5.62837 9.58435C5.63835 9.12242 5.98411 8.76385 6.42953 8.75349C7.91639 8.71893 11.2468 8.90335 13.2953 11.0278Z" fill="#57EE72"/>
<path d="M16.7047 11.0278C14.6562 13.1522 14.4784 16.606 14.5117 18.148C14.5217 18.61 14.8675 18.9685 15.3129 18.9789C16.7997 19.0134 20.1302 18.829 22.1787 16.7046C24.2271 14.5802 24.405 11.1263 24.3716 9.58435C24.3616 9.12242 24.0159 8.76385 23.5705 8.75349C22.0836 8.71893 18.7532 8.90335 16.7047 11.0278Z" fill="#5ACE6F"/>
</svg>
