<svg width="31" height="30" viewBox="0 0 31 30" fill="none" xmlns="http://www.w3.org/2000/svg">
<path fill-rule="evenodd" clip-rule="evenodd" d="M15.526 17.8197C16.3155 17.8197 16.9556 18.4835 16.9556 19.3023V22.2674C16.9556 23.0862 16.3155 23.75 15.526 23.75C14.7365 23.75 14.0964 23.0862 14.0964 22.2674V19.3023C14.0964 18.4835 14.7365 17.8197 15.526 17.8197Z" fill="#5ACE6F"/>
<path d="M13.6703 11.0278C15.7188 13.1522 15.8966 16.606 15.8633 18.148C15.8533 18.61 15.5075 18.9685 15.0621 18.9789C13.5753 19.0134 10.2448 18.829 8.19635 16.7046C6.14787 14.5802 5.97004 11.1263 6.00337 9.58435C6.01335 9.12242 6.35911 8.76385 6.80453 8.75349C8.29139 8.71893 11.6218 8.90335 13.6703 11.0278Z" fill="#57EE72"/>
<path d="M17.0797 11.0278C15.0312 13.1522 14.8534 16.606 14.8867 18.148C14.8967 18.61 15.2425 18.9685 15.6879 18.9789C17.1747 19.0134 20.5052 18.829 22.5537 16.7046C24.6021 14.5802 24.78 11.1263 24.7466 9.58435C24.7366 9.12242 24.3909 8.76385 23.9455 8.75349C22.4586 8.71893 19.1282 8.90335 17.0797 11.0278Z" fill="#5ACE6F"/>
</svg>
