<svg width="80" height="80" viewBox="0 0 80 80" fill="none" xmlns="http://www.w3.org/2000/svg">
<rect width="80" height="80" rx="40" transform="matrix(-1 0 0 1 80 0)" fill="#1A1A1A"/>
<rect width="80" height="80" rx="40" transform="matrix(-1 0 0 1 80 0)" fill="white" fill-opacity="0.8"/>
<path fill-rule="evenodd" clip-rule="evenodd" d="M32.2651 37.4098C32.649 38.2464 32.2821 39.2358 31.4455 39.6198C27.6387 41.367 25.0003 45.2105 25.0003 49.6666C25.0003 55.7676 29.947 60.7142 36.0479 60.7142C41.194 60.7142 45.5213 57.1953 46.7477 52.4298C46.9771 51.5384 47.8857 51.0017 48.7771 51.2311C49.6685 51.4605 50.2052 52.3691 49.9758 53.2605C48.3796 59.4632 42.7516 64.0475 36.0479 64.0475C28.106 64.0475 21.667 57.6085 21.667 49.6666C21.667 43.8601 25.1082 38.8608 30.0551 36.5903C30.8917 36.2064 31.8811 36.5733 32.2651 37.4098Z" fill="white"/>
<path fill-rule="evenodd" clip-rule="evenodd" d="M35.8636 26.8194C36.7785 26.7178 37.6025 27.377 37.7041 28.2918L39.6471 45.7783L53.9487 44.8248C54.74 44.7721 55.4589 45.2842 55.6675 46.0493L58.5111 56.4759H60.4167C61.3372 56.4759 62.0834 57.2221 62.0834 58.1426C62.0834 59.063 61.3372 59.8092 60.4167 59.8092H57.2381C56.4866 59.8092 55.828 59.3062 55.6302 58.5811L52.8103 48.2414L38.2776 49.2103C37.3877 49.2696 36.6087 48.6178 36.5102 47.7314L34.3912 28.6599C34.2896 27.7451 34.9488 26.9211 35.8636 26.8194Z" fill="white"/>
<path fill-rule="evenodd" clip-rule="evenodd" d="M36.0483 21.6666C35.3663 21.6666 34.7123 21.9375 34.23 22.4197C33.7478 22.902 33.4769 23.556 33.4769 24.238C33.4769 24.92 33.7478 25.5741 34.23 26.0563C34.7123 26.5385 35.3663 26.8094 36.0483 26.8094C36.7303 26.8094 37.3844 26.5385 37.8666 26.0563C38.3488 25.5741 38.6197 24.92 38.6197 24.238C38.6197 23.556 38.3488 22.902 37.8666 22.4197C37.3844 21.9375 36.7303 21.6666 36.0483 21.6666ZM31.873 20.0627C32.9804 18.9554 34.4823 18.3333 36.0483 18.3333C37.6144 18.3333 39.1163 18.9554 40.2236 20.0627C41.331 21.1701 41.9531 22.672 41.9531 24.238C41.9531 25.8041 41.331 27.306 40.2236 28.4133C39.1163 29.5207 37.6144 30.1428 36.0483 30.1428C34.4823 30.1428 32.9804 29.5207 31.873 28.4133C30.7657 27.306 30.1436 25.8041 30.1436 24.238C30.1436 22.672 30.7657 21.1701 31.873 20.0627ZM41.7983 36.9523C41.7983 36.0318 42.5445 35.2856 43.465 35.2856H51.9412C52.8617 35.2856 53.6078 36.0318 53.6078 36.9523C53.6078 37.8728 52.8617 38.619 51.9412 38.619H43.465C42.5445 38.619 41.7983 37.8728 41.7983 36.9523Z" fill="white"/>
</svg>
