<svg width="77" height="77" viewBox="0 0 77 77" fill="none" xmlns="http://www.w3.org/2000/svg">
<circle cx="38.5" cy="38.5" r="38.5" fill="#1A1A1A"/>
<circle cx="38.5" cy="38.5" r="38.5" fill="white" fill-opacity="0.9"/>
<path d="M28.0234 32.056H29.7354V36.84H31.6714V38.248H29.7354V43.176H28.0234V32.056ZM18.4394 40.344C19.4954 40.344 20.7274 40.328 22.0074 40.296V39.368C20.4394 39.16 19.4634 38.392 19.4634 37.224C19.4634 35.864 20.8074 35.032 22.8554 35.032C24.9034 35.032 26.2474 35.864 26.2474 37.224C26.2474 38.376 25.2714 39.16 23.7194 39.368V40.216C24.9354 40.136 26.1674 40.024 27.3034 39.848L27.4314 41.048C24.4554 41.608 21.0954 41.672 18.6474 41.672L18.4394 40.344ZM18.7914 34.552V33.304H22.0074V31.992H23.7194V33.304H26.9194V34.552H18.7914ZM20.4714 46.008V42.456H22.1994V44.616H30.2314V46.008H20.4714ZM21.0954 37.224C21.0954 37.864 21.7674 38.232 22.8554 38.232C23.9594 38.232 24.6314 37.864 24.6314 37.224C24.6314 36.568 23.9594 36.2 22.8554 36.2C21.7674 36.2 21.0954 36.568 21.0954 37.224ZM38.1038 32.296H39.8638V32.808C39.8638 34.44 41.8318 36.056 44.7118 36.44L44.0878 37.784C41.7678 37.448 39.8958 36.36 38.9838 34.872C38.0878 36.36 36.2158 37.448 33.8638 37.784L33.2398 36.44C36.1518 36.056 38.1038 34.456 38.1038 32.808V32.296ZM32.5518 40.072V38.712H45.3998V40.072H32.5518ZM34.0558 43.736C34.0558 42.104 35.8958 41.16 38.9678 41.16C42.0238 41.16 43.8638 42.104 43.8638 43.736C43.8638 45.368 42.0238 46.28 38.9678 46.28C35.8958 46.28 34.0558 45.368 34.0558 43.736ZM35.7838 43.736C35.7838 44.552 36.9038 44.984 38.9678 44.984C40.9998 44.984 42.1198 44.552 42.1198 43.736C42.1198 42.904 40.9998 42.472 38.9678 42.472C36.9038 42.472 35.7838 42.904 35.7838 43.736ZM48.7282 41.176H58.3442V46.28H56.6162V42.52H48.7282V41.176ZM46.7122 36.296C46.7122 34.28 48.3122 32.824 50.4402 32.824C51.6082 32.824 52.6482 33.288 53.3202 34.04H56.6162V32.056H58.3442V40.456H56.6162V38.568H53.3042C52.6322 39.32 51.6082 39.768 50.4402 39.768C48.3122 39.768 46.7122 38.328 46.7122 36.296ZM48.3442 36.296C48.3442 37.544 49.2402 38.312 50.4402 38.312C51.6242 38.312 52.5042 37.544 52.5042 36.296C52.5042 35.08 51.6242 34.296 50.4402 34.296C49.2402 34.296 48.3442 35.08 48.3442 36.296ZM54.0402 37.176H56.6162V35.432H54.0402C54.1202 35.704 54.1522 35.992 54.1522 36.296C54.1522 36.6 54.1202 36.904 54.0402 37.176Z" fill="#1A1A1A"/>
<path d="M28.0234 32.056H29.7354V36.84H31.6714V38.248H29.7354V43.176H28.0234V32.056ZM18.4394 40.344C19.4954 40.344 20.7274 40.328 22.0074 40.296V39.368C20.4394 39.16 19.4634 38.392 19.4634 37.224C19.4634 35.864 20.8074 35.032 22.8554 35.032C24.9034 35.032 26.2474 35.864 26.2474 37.224C26.2474 38.376 25.2714 39.16 23.7194 39.368V40.216C24.9354 40.136 26.1674 40.024 27.3034 39.848L27.4314 41.048C24.4554 41.608 21.0954 41.672 18.6474 41.672L18.4394 40.344ZM18.7914 34.552V33.304H22.0074V31.992H23.7194V33.304H26.9194V34.552H18.7914ZM20.4714 46.008V42.456H22.1994V44.616H30.2314V46.008H20.4714ZM21.0954 37.224C21.0954 37.864 21.7674 38.232 22.8554 38.232C23.9594 38.232 24.6314 37.864 24.6314 37.224C24.6314 36.568 23.9594 36.2 22.8554 36.2C21.7674 36.2 21.0954 36.568 21.0954 37.224ZM38.1038 32.296H39.8638V32.808C39.8638 34.44 41.8318 36.056 44.7118 36.44L44.0878 37.784C41.7678 37.448 39.8958 36.36 38.9838 34.872C38.0878 36.36 36.2158 37.448 33.8638 37.784L33.2398 36.44C36.1518 36.056 38.1038 34.456 38.1038 32.808V32.296ZM32.5518 40.072V38.712H45.3998V40.072H32.5518ZM34.0558 43.736C34.0558 42.104 35.8958 41.16 38.9678 41.16C42.0238 41.16 43.8638 42.104 43.8638 43.736C43.8638 45.368 42.0238 46.28 38.9678 46.28C35.8958 46.28 34.0558 45.368 34.0558 43.736ZM35.7838 43.736C35.7838 44.552 36.9038 44.984 38.9678 44.984C40.9998 44.984 42.1198 44.552 42.1198 43.736C42.1198 42.904 40.9998 42.472 38.9678 42.472C36.9038 42.472 35.7838 42.904 35.7838 43.736ZM48.7282 41.176H58.3442V46.28H56.6162V42.52H48.7282V41.176ZM46.7122 36.296C46.7122 34.28 48.3122 32.824 50.4402 32.824C51.6082 32.824 52.6482 33.288 53.3202 34.04H56.6162V32.056H58.3442V40.456H56.6162V38.568H53.3042C52.6322 39.32 51.6082 39.768 50.4402 39.768C48.3122 39.768 46.7122 38.328 46.7122 36.296ZM48.3442 36.296C48.3442 37.544 49.2402 38.312 50.4402 38.312C51.6242 38.312 52.5042 37.544 52.5042 36.296C52.5042 35.08 51.6242 34.296 50.4402 34.296C49.2402 34.296 48.3442 35.08 48.3442 36.296ZM54.0402 37.176H56.6162V35.432H54.0402C54.1202 35.704 54.1522 35.992 54.1522 36.296C54.1522 36.6 54.1202 36.904 54.0402 37.176Z" fill="white" fill-opacity="0.5"/>
</svg>
