<svg width="77" height="77" viewBox="0 0 77 77" fill="none" xmlns="http://www.w3.org/2000/svg">
<circle cx="38.5" cy="38.5" r="38.5" fill="#1A1A1A"/>
<circle cx="38.5" cy="38.5" r="38.5" fill="white" fill-opacity="0.9"/>
<path d="M29.4636 22.472C30.6476 22.472 31.6716 22.904 32.3436 23.608H35.6396V22.056H37.3676V29.24H35.6396V27.864H32.3596C31.6876 28.584 30.6636 29.016 29.4636 29.016C27.3196 29.016 25.7516 27.656 25.7516 25.752C25.7516 23.832 27.3196 22.472 29.4636 22.472ZM27.3836 25.752C27.3836 26.888 28.2636 27.624 29.4636 27.624C30.6636 27.624 31.5436 26.888 31.5436 25.752C31.5436 24.632 30.6636 23.88 29.4636 23.88C28.2636 23.88 27.3836 24.632 27.3836 25.752ZM28.0716 31.24V29.896H37.3676V33.576H29.7996V34.76H37.8316V36.104H28.0876V32.312H35.6556V31.24H28.0716ZM33.0796 24.952C33.1436 25.208 33.1756 25.48 33.1756 25.752C33.1756 26.024 33.1436 26.28 33.0796 26.52H35.6396V24.952H33.0796ZM39.784 24.44H42.808V22.344H44.52V24.44H47.496V25.8H44.52V26.552C44.52 28.696 45.704 31 47.848 32.04L46.92 33.352C45.384 32.616 44.28 31.192 43.672 29.512C43.064 31.32 41.896 32.84 40.28 33.608L39.336 32.28C41.56 31.256 42.808 28.84 42.808 26.552V25.8H39.784V24.44ZM48.872 36.28V22.056H50.6V27.72H52.776V29.16H50.6V36.28H48.872ZM26.1516 42.792H32.7436V44.168H27.8796V45.48H32.4716V46.824H27.8796V48.2C30.3436 48.184 31.8476 48.12 33.5916 47.8L33.7676 49.176C31.8476 49.512 30.1516 49.576 27.2876 49.576H26.1516V42.792ZM27.5596 56.104V50.536H29.2556V51.944H34.9996V50.536H36.6956V56.104H27.5596ZM29.2556 54.728H34.9996V53.304H29.2556V54.728ZM34.9836 49.928V42.056H36.6956V45.224H38.6796V46.632H36.6956V49.928H34.9836ZM45.096 42.296H46.856V42.808C46.856 44.44 48.824 46.056 51.704 46.44L51.08 47.784C48.76 47.448 46.888 46.36 45.976 44.872C45.08 46.36 43.208 47.448 40.856 47.784L40.232 46.44C43.144 46.056 45.096 44.456 45.096 42.808V42.296ZM39.544 50.072V48.712H52.392V50.072H39.544ZM41.048 53.736C41.048 52.104 42.888 51.16 45.96 51.16C49.016 51.16 50.856 52.104 50.856 53.736C50.856 55.368 49.016 56.28 45.96 56.28C42.888 56.28 41.048 55.368 41.048 53.736ZM42.776 53.736C42.776 54.552 43.896 54.984 45.96 54.984C47.992 54.984 49.112 54.552 49.112 53.736C49.112 52.904 47.992 52.472 45.96 52.472C43.896 52.472 42.776 52.904 42.776 53.736Z" fill="#1A1A1A"/>
<path d="M29.4636 22.472C30.6476 22.472 31.6716 22.904 32.3436 23.608H35.6396V22.056H37.3676V29.24H35.6396V27.864H32.3596C31.6876 28.584 30.6636 29.016 29.4636 29.016C27.3196 29.016 25.7516 27.656 25.7516 25.752C25.7516 23.832 27.3196 22.472 29.4636 22.472ZM27.3836 25.752C27.3836 26.888 28.2636 27.624 29.4636 27.624C30.6636 27.624 31.5436 26.888 31.5436 25.752C31.5436 24.632 30.6636 23.88 29.4636 23.88C28.2636 23.88 27.3836 24.632 27.3836 25.752ZM28.0716 31.24V29.896H37.3676V33.576H29.7996V34.76H37.8316V36.104H28.0876V32.312H35.6556V31.24H28.0716ZM33.0796 24.952C33.1436 25.208 33.1756 25.48 33.1756 25.752C33.1756 26.024 33.1436 26.28 33.0796 26.52H35.6396V24.952H33.0796ZM39.784 24.44H42.808V22.344H44.52V24.44H47.496V25.8H44.52V26.552C44.52 28.696 45.704 31 47.848 32.04L46.92 33.352C45.384 32.616 44.28 31.192 43.672 29.512C43.064 31.32 41.896 32.84 40.28 33.608L39.336 32.28C41.56 31.256 42.808 28.84 42.808 26.552V25.8H39.784V24.44ZM48.872 36.28V22.056H50.6V27.72H52.776V29.16H50.6V36.28H48.872ZM26.1516 42.792H32.7436V44.168H27.8796V45.48H32.4716V46.824H27.8796V48.2C30.3436 48.184 31.8476 48.12 33.5916 47.8L33.7676 49.176C31.8476 49.512 30.1516 49.576 27.2876 49.576H26.1516V42.792ZM27.5596 56.104V50.536H29.2556V51.944H34.9996V50.536H36.6956V56.104H27.5596ZM29.2556 54.728H34.9996V53.304H29.2556V54.728ZM34.9836 49.928V42.056H36.6956V45.224H38.6796V46.632H36.6956V49.928H34.9836ZM45.096 42.296H46.856V42.808C46.856 44.44 48.824 46.056 51.704 46.44L51.08 47.784C48.76 47.448 46.888 46.36 45.976 44.872C45.08 46.36 43.208 47.448 40.856 47.784L40.232 46.44C43.144 46.056 45.096 44.456 45.096 42.808V42.296ZM39.544 50.072V48.712H52.392V50.072H39.544ZM41.048 53.736C41.048 52.104 42.888 51.16 45.96 51.16C49.016 51.16 50.856 52.104 50.856 53.736C50.856 55.368 49.016 56.28 45.96 56.28C42.888 56.28 41.048 55.368 41.048 53.736ZM42.776 53.736C42.776 54.552 43.896 54.984 45.96 54.984C47.992 54.984 49.112 54.552 49.112 53.736C49.112 52.904 47.992 52.472 45.96 52.472C43.896 52.472 42.776 52.904 42.776 53.736Z" fill="white" fill-opacity="0.5"/>
</svg>
