<svg width="77" height="77" viewBox="0 0 77 77" fill="none" xmlns="http://www.w3.org/2000/svg">
<circle cx="38.5" cy="38.5" r="38.5" fill="#1A1A1A"/>
<circle cx="38.5" cy="38.5" r="38.5" fill="white" fill-opacity="0.9"/>
<path d="M20.1354 33.096H29.8954V34.472H21.8474V38.52H30.0394V39.912H25.8474V43.176H31.4474V44.584H18.5674V43.176H24.1354V39.912H20.1354V33.096ZM32.9518 33.656H35.9118V32.008H37.6238V33.656H40.5838V35.016H37.6238V35.112C37.6238 36.728 38.7758 38.296 40.9678 38.904L40.1678 40.248C38.5678 39.768 37.4318 38.792 36.7918 37.544C36.1678 38.92 34.9998 39.992 33.3358 40.504L32.5038 39.16C34.7278 38.504 35.9118 36.856 35.9118 35.112V35.016H32.9518V33.656ZM34.2958 42.792V41.416H43.6718V46.296H41.9598V42.792H34.2958ZM41.9598 40.744V32.056H43.6718V35.672H45.6558V37.096H43.6718V40.744H41.9598ZM48.7282 41.176H58.3442V46.28H56.6162V42.52H48.7282V41.176ZM46.7122 36.296C46.7122 34.28 48.3122 32.824 50.4402 32.824C51.6082 32.824 52.6482 33.288 53.3202 34.04H56.6162V32.056H58.3442V40.456H56.6162V38.568H53.3042C52.6322 39.32 51.6082 39.768 50.4402 39.768C48.3122 39.768 46.7122 38.328 46.7122 36.296ZM48.3442 36.296C48.3442 37.544 49.2402 38.312 50.4402 38.312C51.6242 38.312 52.5042 37.544 52.5042 36.296C52.5042 35.08 51.6242 34.296 50.4402 34.296C49.2402 34.296 48.3442 35.08 48.3442 36.296ZM54.0402 37.176H56.6162V35.432H54.0402C54.1202 35.704 54.1522 35.992 54.1522 36.296C54.1522 36.6 54.1202 36.904 54.0402 37.176Z" fill="#1A1A1A"/>
<path d="M20.1354 33.096H29.8954V34.472H21.8474V38.52H30.0394V39.912H25.8474V43.176H31.4474V44.584H18.5674V43.176H24.1354V39.912H20.1354V33.096ZM32.9518 33.656H35.9118V32.008H37.6238V33.656H40.5838V35.016H37.6238V35.112C37.6238 36.728 38.7758 38.296 40.9678 38.904L40.1678 40.248C38.5678 39.768 37.4318 38.792 36.7918 37.544C36.1678 38.92 34.9998 39.992 33.3358 40.504L32.5038 39.16C34.7278 38.504 35.9118 36.856 35.9118 35.112V35.016H32.9518V33.656ZM34.2958 42.792V41.416H43.6718V46.296H41.9598V42.792H34.2958ZM41.9598 40.744V32.056H43.6718V35.672H45.6558V37.096H43.6718V40.744H41.9598ZM48.7282 41.176H58.3442V46.28H56.6162V42.52H48.7282V41.176ZM46.7122 36.296C46.7122 34.28 48.3122 32.824 50.4402 32.824C51.6082 32.824 52.6482 33.288 53.3202 34.04H56.6162V32.056H58.3442V40.456H56.6162V38.568H53.3042C52.6322 39.32 51.6082 39.768 50.4402 39.768C48.3122 39.768 46.7122 38.328 46.7122 36.296ZM48.3442 36.296C48.3442 37.544 49.2402 38.312 50.4402 38.312C51.6242 38.312 52.5042 37.544 52.5042 36.296C52.5042 35.08 51.6242 34.296 50.4402 34.296C49.2402 34.296 48.3442 35.08 48.3442 36.296ZM54.0402 37.176H56.6162V35.432H54.0402C54.1202 35.704 54.1522 35.992 54.1522 36.296C54.1522 36.6 54.1202 36.904 54.0402 37.176Z" fill="white" fill-opacity="0.5"/>
</svg>
