<svg width="77" height="77" viewBox="0 0 77 77" fill="none" xmlns="http://www.w3.org/2000/svg">
<circle cx="38.5" cy="38.5" r="38.5" fill="#1A1A1A"/>
<circle cx="38.5" cy="38.5" r="38.5" fill="white" fill-opacity="0.9"/>
<path d="M35.5916 22.056H37.3196V36.28H35.5916V22.056ZM25.6396 32.408C29.3516 30.616 31.0636 28.184 31.3516 24.92H26.3596V23.544H33.1116C33.1116 27.8 31.4796 31.384 26.5516 33.768L25.6396 32.408ZM40.152 23.288H46.792V24.696H41.864V27.256H46.552V28.6H41.864V31.576C44.088 31.56 45.768 31.48 47.752 31.176L47.912 32.552C45.736 32.904 43.832 32.968 41.288 32.968H40.152V23.288ZM48.888 36.28V22.056H50.616V27.592H52.776V29.016H50.616V36.28H48.888ZM26.2956 43.224H33.0636V49.992H26.2956V43.224ZM27.9756 48.616H31.3836V44.584H27.9756V48.616ZM27.9916 55.896V51.272H29.7036V54.52H37.7196V55.896H27.9916ZM35.5756 52.216V42.072H37.3036V52.216H35.5756ZM49.64 42.056H51.368V52.856H49.64V51.576H46.872V50.376H49.64V42.056ZM39.464 48.472C42.072 48.456 45.576 48.424 48.584 48.056L48.68 49.272C47.512 49.464 46.296 49.592 45.096 49.688V52.424H43.384V49.784C42.056 49.848 40.792 49.864 39.688 49.864L39.464 48.472ZM40.536 45.096C40.536 43.592 41.992 42.584 44.072 42.584C46.152 42.584 47.592 43.592 47.592 45.096C47.592 46.616 46.152 47.608 44.072 47.608C41.992 47.608 40.536 46.616 40.536 45.096ZM41.352 56.008V51.816H43.08V54.616H51.704V56.008H41.352ZM42.168 45.096C42.168 45.88 42.952 46.328 44.072 46.328C45.192 46.328 45.944 45.88 45.944 45.096C45.944 44.296 45.192 43.832 44.072 43.832C42.952 43.832 42.168 44.296 42.168 45.096Z" fill="#1A1A1A"/>
<path d="M35.5916 22.056H37.3196V36.28H35.5916V22.056ZM25.6396 32.408C29.3516 30.616 31.0636 28.184 31.3516 24.92H26.3596V23.544H33.1116C33.1116 27.8 31.4796 31.384 26.5516 33.768L25.6396 32.408ZM40.152 23.288H46.792V24.696H41.864V27.256H46.552V28.6H41.864V31.576C44.088 31.56 45.768 31.48 47.752 31.176L47.912 32.552C45.736 32.904 43.832 32.968 41.288 32.968H40.152V23.288ZM48.888 36.28V22.056H50.616V27.592H52.776V29.016H50.616V36.28H48.888ZM26.2956 43.224H33.0636V49.992H26.2956V43.224ZM27.9756 48.616H31.3836V44.584H27.9756V48.616ZM27.9916 55.896V51.272H29.7036V54.52H37.7196V55.896H27.9916ZM35.5756 52.216V42.072H37.3036V52.216H35.5756ZM49.64 42.056H51.368V52.856H49.64V51.576H46.872V50.376H49.64V42.056ZM39.464 48.472C42.072 48.456 45.576 48.424 48.584 48.056L48.68 49.272C47.512 49.464 46.296 49.592 45.096 49.688V52.424H43.384V49.784C42.056 49.848 40.792 49.864 39.688 49.864L39.464 48.472ZM40.536 45.096C40.536 43.592 41.992 42.584 44.072 42.584C46.152 42.584 47.592 43.592 47.592 45.096C47.592 46.616 46.152 47.608 44.072 47.608C41.992 47.608 40.536 46.616 40.536 45.096ZM41.352 56.008V51.816H43.08V54.616H51.704V56.008H41.352ZM42.168 45.096C42.168 45.88 42.952 46.328 44.072 46.328C45.192 46.328 45.944 45.88 45.944 45.096C45.944 44.296 45.192 43.832 44.072 43.832C42.952 43.832 42.168 44.296 42.168 45.096Z" fill="white" fill-opacity="0.5"/>
</svg>
