<svg width="77" height="77" viewBox="0 0 77 77" fill="none" xmlns="http://www.w3.org/2000/svg">
<circle cx="38.5" cy="38.5" r="38.5" fill="#1A1A1A"/>
<circle cx="38.5" cy="38.5" r="38.5" fill="white" fill-opacity="0.9"/>
<path d="M18.5994 38.216H31.3994V39.496H25.8474V40.536H29.8154V43.88H21.7994V44.888H30.2314V46.168H20.1034V42.696H28.1354V41.8H20.0714V40.536H24.1194V39.496H18.5994V38.216ZM19.1594 36.44C21.9594 36.312 23.6394 35.512 23.9754 34.488H19.8314V33.208H24.1354V32.008H25.8474V33.208H30.1674V34.488H26.0074C26.3434 35.512 28.0074 36.312 30.8234 36.44L30.3434 37.736C27.7994 37.56 25.8954 36.872 24.9994 35.736C24.1034 36.872 22.1994 37.56 19.6554 37.736L19.1594 36.44ZM33.0638 32.664H34.7598V34.504H38.0878V32.664H39.7838V38.872H33.0638V32.664ZM34.4558 41.272V39.928H43.6878V43.64H36.1838V44.808H44.1518V46.168H34.4878V42.376H41.9918V41.272H34.4558ZM34.7598 37.512H38.0878V35.8H34.7598V37.512ZM41.9758 39.336V32.056H43.6878V34.936H45.6558V36.344H43.6878V39.336H41.9758ZM48.7282 41.176H58.3442V46.28H56.6162V42.52H48.7282V41.176ZM46.7122 36.296C46.7122 34.28 48.3122 32.824 50.4402 32.824C51.6082 32.824 52.6482 33.288 53.3202 34.04H56.6162V32.056H58.3442V40.456H56.6162V38.568H53.3042C52.6322 39.32 51.6082 39.768 50.4402 39.768C48.3122 39.768 46.7122 38.328 46.7122 36.296ZM48.3442 36.296C48.3442 37.544 49.2402 38.312 50.4402 38.312C51.6242 38.312 52.5042 37.544 52.5042 36.296C52.5042 35.08 51.6242 34.296 50.4402 34.296C49.2402 34.296 48.3442 35.08 48.3442 36.296ZM54.0402 37.176H56.6162V35.432H54.0402C54.1202 35.704 54.1522 35.992 54.1522 36.296C54.1522 36.6 54.1202 36.904 54.0402 37.176Z" fill="#1A1A1A"/>
<path d="M18.5994 38.216H31.3994V39.496H25.8474V40.536H29.8154V43.88H21.7994V44.888H30.2314V46.168H20.1034V42.696H28.1354V41.8H20.0714V40.536H24.1194V39.496H18.5994V38.216ZM19.1594 36.44C21.9594 36.312 23.6394 35.512 23.9754 34.488H19.8314V33.208H24.1354V32.008H25.8474V33.208H30.1674V34.488H26.0074C26.3434 35.512 28.0074 36.312 30.8234 36.44L30.3434 37.736C27.7994 37.56 25.8954 36.872 24.9994 35.736C24.1034 36.872 22.1994 37.56 19.6554 37.736L19.1594 36.44ZM33.0638 32.664H34.7598V34.504H38.0878V32.664H39.7838V38.872H33.0638V32.664ZM34.4558 41.272V39.928H43.6878V43.64H36.1838V44.808H44.1518V46.168H34.4878V42.376H41.9918V41.272H34.4558ZM34.7598 37.512H38.0878V35.8H34.7598V37.512ZM41.9758 39.336V32.056H43.6878V34.936H45.6558V36.344H43.6878V39.336H41.9758ZM48.7282 41.176H58.3442V46.28H56.6162V42.52H48.7282V41.176ZM46.7122 36.296C46.7122 34.28 48.3122 32.824 50.4402 32.824C51.6082 32.824 52.6482 33.288 53.3202 34.04H56.6162V32.056H58.3442V40.456H56.6162V38.568H53.3042C52.6322 39.32 51.6082 39.768 50.4402 39.768C48.3122 39.768 46.7122 38.328 46.7122 36.296ZM48.3442 36.296C48.3442 37.544 49.2402 38.312 50.4402 38.312C51.6242 38.312 52.5042 37.544 52.5042 36.296C52.5042 35.08 51.6242 34.296 50.4402 34.296C49.2402 34.296 48.3442 35.08 48.3442 36.296ZM54.0402 37.176H56.6162V35.432H54.0402C54.1202 35.704 54.1522 35.992 54.1522 36.296C54.1522 36.6 54.1202 36.904 54.0402 37.176Z" fill="white" fill-opacity="0.5"/>
</svg>
