<svg width="77" height="77" viewBox="0 0 77 77" fill="none" xmlns="http://www.w3.org/2000/svg">
<circle cx="38.5" cy="38.5" r="38.5" fill="#5ACE6F"/>
<path d="M19.1594 23.048H22.3914V21.896H24.1194V23.048H27.3514V24.216H19.1594V23.048ZM18.6154 28.904C21.2554 28.904 24.7114 28.888 27.7194 28.52L27.8154 29.592C26.5994 29.784 25.3674 29.896 24.1354 29.976V31H30.2954V34.088H22.4554V34.984H30.6954V36.168H20.7754V33H28.5834V32.168H20.7434V31H22.4074V30.072C21.1274 30.104 19.8954 30.12 18.8074 30.12L18.6154 28.904ZM19.8314 26.472C19.8314 25.272 21.1754 24.568 23.2394 24.568C25.3354 24.568 26.6634 25.272 26.6634 26.472C26.6634 27.656 25.3354 28.36 23.2394 28.36C21.1754 28.36 19.8314 27.656 19.8314 26.472ZM21.4634 26.472C21.4634 27 22.1354 27.256 23.2394 27.256C24.3754 27.256 25.0314 27 25.0314 26.472C25.0314 25.944 24.3754 25.672 23.2394 25.672C22.1354 25.672 21.4634 25.944 21.4634 26.472ZM28.5674 30.472V22.056H30.2954V30.472H28.5674ZM38.3278 27.544H40.1998V22.328H41.7998V35.592H40.1998V28.936H38.3278V27.544ZM32.3438 32.2C34.3278 31.048 35.2078 28.648 35.2078 26.408V25.944H32.8078V24.552H35.2078V22.536H36.8558V24.552H39.2078V25.944H36.8558V26.408C36.8558 28.6 37.7518 30.84 39.7198 31.896L38.7758 33.176C37.4638 32.472 36.5678 31.224 36.0398 29.72C35.5438 31.336 34.6478 32.728 33.3198 33.512L32.3438 32.2ZM43.0478 36.28V22.056H44.6958V36.28H43.0478ZM50.3762 23.08C52.2802 23.08 53.7202 24.696 53.9602 27.304H56.6482V22.04H58.3602V36.312H56.6482V28.68H53.9762C53.8002 31.432 52.3442 33.16 50.3762 33.16C48.2802 33.16 46.7602 31.192 46.7602 28.104C46.7602 25.032 48.2802 23.08 50.3762 23.08ZM48.3922 28.104C48.3922 30.312 49.2082 31.592 50.3762 31.592C51.5762 31.592 52.3602 30.312 52.3602 28.104C52.3602 25.928 51.5762 24.648 50.3762 24.648C49.2082 24.648 48.3922 25.928 48.3922 28.104ZM26.1516 42.792H32.7436V44.168H27.8796V45.48H32.4716V46.824H27.8796V48.2C30.3436 48.184 31.8476 48.12 33.5916 47.8L33.7676 49.176C31.8476 49.512 30.1516 49.576 27.2876 49.576H26.1516V42.792ZM27.5596 56.104V50.536H29.2556V51.944H34.9996V50.536H36.6956V56.104H27.5596ZM29.2556 54.728H34.9996V53.304H29.2556V54.728ZM34.9836 49.928V42.056H36.6956V45.224H38.6796V46.632H36.6956V49.928H34.9836ZM45.096 42.296H46.856V42.808C46.856 44.44 48.824 46.056 51.704 46.44L51.08 47.784C48.76 47.448 46.888 46.36 45.976 44.872C45.08 46.36 43.208 47.448 40.856 47.784L40.232 46.44C43.144 46.056 45.096 44.456 45.096 42.808V42.296ZM39.544 50.072V48.712H52.392V50.072H39.544ZM41.048 53.736C41.048 52.104 42.888 51.16 45.96 51.16C49.016 51.16 50.856 52.104 50.856 53.736C50.856 55.368 49.016 56.28 45.96 56.28C42.888 56.28 41.048 55.368 41.048 53.736ZM42.776 53.736C42.776 54.552 43.896 54.984 45.96 54.984C47.992 54.984 49.112 54.552 49.112 53.736C49.112 52.904 47.992 52.472 45.96 52.472C43.896 52.472 42.776 52.904 42.776 53.736Z" fill="white"/>
</svg>
