<svg width="77" height="77" viewBox="0 0 77 77" fill="none" xmlns="http://www.w3.org/2000/svg">
<circle cx="38.5" cy="38.5" r="38.5" fill="#5ACE6F"/>
<path d="M34.9676 22.056H36.6956V26.232H38.6636V27.64H36.6956V32.456H34.9676V22.056ZM25.7356 26.568C25.7356 24.472 27.3676 23 29.5276 23C31.6876 23 33.3356 24.472 33.3356 26.568C33.3356 28.648 31.6876 30.136 29.5276 30.136C27.3676 30.136 25.7356 28.648 25.7356 26.568ZM27.4156 26.568C27.4156 27.832 28.3276 28.632 29.5276 28.632C30.7276 28.632 31.6556 27.832 31.6556 26.568C31.6556 25.304 30.7276 24.488 29.5276 24.488C28.3276 24.488 27.4156 25.304 27.4156 26.568ZM27.6556 36.008V31.384H29.3676V34.616H37.2556V36.008H27.6556ZM47.128 25.832H49.624V22.072H51.352V32.44H49.624V27.24H47.128V25.832ZM39.512 29.416C41.752 28.648 42.968 26.792 42.968 24.888V24.472H40.008V23.096H47.624V24.472H44.712V24.888C44.712 26.616 45.864 28.392 48.024 29.128L47.176 30.488C45.608 29.928 44.488 28.856 43.864 27.496C43.256 29 42.056 30.216 40.376 30.792L39.512 29.416ZM42.088 36.008V31.56H43.816V34.616H51.72V36.008H42.088ZM26.0716 42.664H27.7676V44.504H31.0956V42.664H32.7916V48.872H26.0716V42.664ZM27.4636 51.272V49.928H36.6956V53.64H29.1916V54.808H37.1596V56.168H27.4956V52.376H34.9996V51.272H27.4636ZM27.7676 47.512H31.0956V45.8H27.7676V47.512ZM34.9836 49.336V42.056H36.6956V44.936H38.6636V46.344H36.6956V49.336H34.9836ZM39.88 43.288H47.496V44.664H46.232V48.936C46.856 48.872 47.48 48.824 48.072 48.744L48.168 50.008C45.384 50.472 42.104 50.552 39.72 50.552L39.528 49.144C40.024 49.144 40.568 49.144 41.144 49.128V44.664H39.88V43.288ZM41.64 56.008V51.544H43.352V54.616H51.24V56.008H41.64ZM42.808 49.096C43.4 49.08 43.992 49.064 44.6 49.032V44.664H42.808V49.096ZM48.952 52.536V42.072H50.664V46.2H52.648V47.624H50.664V52.536H48.952Z" fill="white"/>
</svg>
