<svg width="77" height="77" viewBox="0 0 77 77" fill="none" xmlns="http://www.w3.org/2000/svg">
<circle cx="38.5" cy="38.5" r="38.5" fill="#5ACE6F"/>
<path d="M28.5994 22.04H30.3274V36.312H28.5994V22.04ZM19.3354 24.696V23.32H25.9914V28.632H21.0954V31.528C23.3354 31.512 25.2554 31.4 27.4634 31.032L27.6394 32.424C25.2234 32.856 23.1114 32.936 20.5834 32.936H19.3514V27.256H24.2474V24.696H19.3354ZM32.5518 33.128H45.4318V34.552H32.5518V33.128ZM33.6078 24.744V23.352H44.3278V24.744H42.2638V29.304H44.2798V30.68H33.6718V29.304H35.6558V24.744H33.6078ZM37.3838 29.304H40.5518V24.744H37.3838V29.304ZM48.1202 23.16H57.8802V24.552H49.8642V26.312H57.5762V27.672H49.8642V29.512H58.0082V30.888H48.1202V23.16ZM46.5362 34.552V33.144H59.4162V34.552H46.5362ZM35.5596 42.04H37.2876V56.312H35.5596V42.04ZM26.0076 48.104C26.0076 45.032 27.5436 43.08 29.6876 43.08C31.8316 43.08 33.3676 45.032 33.3676 48.104C33.3676 51.192 31.8316 53.16 29.6876 53.16C27.5436 53.16 26.0076 51.192 26.0076 48.104ZM27.6716 48.104C27.6716 50.312 28.4876 51.592 29.6876 51.592C30.8876 51.592 31.7196 50.312 31.7196 48.104C31.7196 45.928 30.8876 44.648 29.6876 44.648C28.4876 44.648 27.6716 45.928 27.6716 48.104ZM39.544 48.936H42.552V47.096C41.496 46.632 40.888 45.912 40.888 44.984C40.888 43.288 42.856 42.296 45.976 42.296C49.08 42.296 51.064 43.288 51.064 44.984C51.064 45.912 50.456 46.648 49.368 47.112V48.936H52.392V50.28H39.544V48.936ZM41.048 53.72C41.048 52.088 42.888 51.16 45.96 51.16C49.016 51.16 50.856 52.088 50.856 53.72C50.856 55.352 49.016 56.28 45.96 56.28C42.888 56.28 41.048 55.352 41.048 53.72ZM42.664 44.984C42.664 45.864 43.896 46.36 45.976 46.36C48.056 46.36 49.288 45.864 49.288 44.984C49.288 44.088 48.056 43.608 45.976 43.608C43.896 43.608 42.664 44.088 42.664 44.984ZM42.776 53.72C42.776 54.552 43.896 54.968 45.96 54.968C47.992 54.968 49.112 54.552 49.112 53.72C49.112 52.904 47.992 52.472 45.96 52.472C43.896 52.472 42.776 52.904 42.776 53.72ZM44.264 48.936H47.656V47.56C47.144 47.64 46.584 47.672 45.976 47.672C45.352 47.672 44.792 47.64 44.264 47.56V48.936Z" fill="white"/>
</svg>
