<svg width="77" height="77" viewBox="0 0 77 77" fill="none" xmlns="http://www.w3.org/2000/svg">
<circle cx="38.5" cy="38.5" r="38.5" fill="#5ACE6F"/>
<path d="M35.6396 22.056H37.3516V36.28H35.6396V29.032H32.6476V27.608H35.6396V22.056ZM25.4476 32.392C29.1116 30.568 30.6956 28.136 30.9676 24.92H26.0876V23.544H32.7116C32.7116 27.752 31.2076 31.304 26.3756 33.72L25.4476 32.392ZM39.56 28.888H45.128V27.528H41.144V22.696H50.856V24.056H42.856V26.152H50.936V27.528H46.84V28.888H52.424V30.264H39.56V28.888ZM41.048 33.704C41.048 32.04 42.888 31.112 45.96 31.112C49 31.112 50.856 32.04 50.856 33.704C50.856 35.352 49 36.28 45.96 36.28C42.888 36.28 41.048 35.352 41.048 33.704ZM42.776 33.704C42.776 34.552 43.912 34.968 45.96 34.968C47.992 34.968 49.112 34.552 49.112 33.704C49.112 32.872 47.992 32.424 45.96 32.424C43.912 32.424 42.776 32.872 42.776 33.704ZM27.2396 42.28H28.9356V43.384H35.0476V42.28H36.7596V47H27.2396V42.28ZM25.5596 49.304V47.928H38.4076V49.304H32.8396V50.408H36.8076V53.816H28.7916V54.856H37.2236V56.168H27.0956V52.616H35.1276V51.672H27.0636V50.408H31.1116V49.304H25.5596ZM28.9356 45.72H35.0476V44.664H28.9356V45.72ZM49.624 42.056H51.352V52.584H49.624V48.824H47.624V47.432H49.624V46.024H47.624V44.632H49.624V42.056ZM39.544 49.272H41.176V44.504H39.928V43.112H47.416V44.504H46.168V49.08C46.696 49.048 47.224 49 47.72 48.936L47.8 50.2C45.128 50.632 41.992 50.696 39.736 50.696L39.544 49.272ZM42.072 56.008V51.768H43.8V54.616H51.688V56.008H42.072ZM42.84 49.24C43.4 49.224 43.96 49.208 44.52 49.176V44.504H42.84V49.24Z" fill="white"/>
</svg>
