<svg width="20" height="20" viewBox="0 0 20 20" fill="none" xmlns="http://www.w3.org/2000/svg">
<rect width="20" height="20" rx="10" fill="#E0762D"/>
<path d="M11.7108 10.012C12.5148 10.48 13.0308 11.332 13.0308 12.076C13.0308 13.564 11.7828 14.62 9.9948 14.62C8.2188 14.62 6.9828 13.516 6.9828 11.968H8.4228C8.4228 12.772 9.0708 13.348 9.9948 13.348C10.9548 13.348 11.6388 12.772 11.6388 11.968C11.6388 11.176 10.9668 10.612 10.0188 10.612H9.4068V9.424H10.0428C10.9068 9.424 11.5068 8.92 11.5068 8.2C11.5068 7.492 10.9188 6.988 10.0788 6.988C9.2628 6.988 8.6868 7.492 8.6868 8.212H7.2468C7.2468 6.748 8.4108 5.716 10.0788 5.716C11.7228 5.716 12.8868 6.7 12.8868 8.104C12.8868 8.776 12.4308 9.568 11.7108 10.012Z" fill="white"/>
</svg>
