<svg width="20" height="20" viewBox="0 0 20 20" fill="none" xmlns="http://www.w3.org/2000/svg">
<rect width="20" height="20" rx="10" fill="#7D3AD5"/>
<path d="M8.67034 10.72L7.23034 10.54L7.54234 5.788H12.3423V7.048H8.92234L8.79034 8.968C9.17434 8.812 9.57034 8.728 9.94234 8.728C11.7903 8.728 13.0863 9.952 13.0863 11.692C13.0863 13.432 11.7903 14.668 9.94234 14.668C8.49034 14.668 7.24234 13.696 6.91834 12.328L8.32234 12.004C8.49034 12.772 9.16234 13.312 9.94234 13.312C10.9503 13.312 11.6463 12.64 11.6463 11.692C11.6463 10.744 10.9503 10.072 9.94234 10.072C9.54634 10.072 9.00634 10.336 8.67034 10.72Z" fill="white"/>
</svg>
