<svg width="20" height="20" viewBox="0 0 20 20" fill="none" xmlns="http://www.w3.org/2000/svg">
<rect width="20" height="20" rx="10" fill="#A65422"/>
<path d="M9.98448 13.372C10.9685 13.372 11.6525 12.676 11.6525 11.692C11.6525 10.696 10.9685 10 9.98448 10C9.02448 10 8.35248 10.696 8.35248 11.692C8.35248 12.676 9.02448 13.372 9.98448 13.372ZM6.91248 11.692C6.91248 11.056 7.14048 10.48 7.40448 10.012L9.78048 5.752H11.4365L9.72048 8.776C9.81648 8.764 9.92448 8.74 10.0325 8.74C11.8325 8.764 13.0925 9.976 13.0925 11.692C13.0925 13.42 11.8085 14.632 9.99648 14.632C8.17248 14.632 6.91248 13.42 6.91248 11.692Z" fill="white"/>
</svg>
