<svg width="20" height="20" viewBox="0 0 20 20" fill="none" xmlns="http://www.w3.org/2000/svg">
<rect width="20" height="20" rx="10" fill="#D2376E"/>
<path d="M10.0071 13.492C10.9431 13.492 11.6031 12.892 11.6031 12.04C11.6031 11.164 10.9431 10.54 10.0071 10.54C9.07108 10.54 8.41108 11.164 8.41108 12.04C8.41108 12.892 9.07108 13.492 10.0071 13.492ZM6.97108 12.076C6.97108 11.308 7.57108 10.42 8.42308 9.94C7.71508 9.46 7.21108 8.68 7.21108 8.044C7.21108 6.64 8.37508 5.644 10.0071 5.644C11.6511 5.644 12.8031 6.64 12.8031 8.044C12.8031 8.692 12.2991 9.472 11.5911 9.94C12.4431 10.42 13.0431 11.308 13.0431 12.076C13.0431 13.624 11.7831 14.704 10.0071 14.704C8.21908 14.704 6.97108 13.624 6.97108 12.076ZM8.65108 8.068C8.65108 8.8 9.21508 9.316 10.0071 9.316C10.7991 9.316 11.3631 8.8 11.3631 8.068C11.3631 7.348 10.7991 6.856 10.0071 6.856C9.21508 6.856 8.65108 7.348 8.65108 8.068Z" fill="white"/>
</svg>
