<svg width="20" height="20" viewBox="0 0 20 20" fill="none" xmlns="http://www.w3.org/2000/svg">
<rect width="20" height="20" rx="10" fill="#CAA846"/>
<path d="M10.0085 6.952C9.03648 6.952 8.35248 7.636 8.35248 8.632C8.35248 9.616 9.03648 10.324 10.0085 10.324C10.9685 10.324 11.6525 9.616 11.6525 8.632C11.6525 7.636 10.9685 6.952 10.0085 6.952ZM6.91248 8.632C6.91248 6.904 8.18448 5.692 9.99648 5.692C11.8205 5.692 13.0925 6.904 13.0925 8.632C13.0925 9.268 12.8525 9.844 12.5885 10.312L10.2125 14.56H8.55648L10.2845 11.548C10.1765 11.56 10.0685 11.572 9.96048 11.572C8.16048 11.56 6.91248 10.348 6.91248 8.632Z" fill="white"/>
</svg>
