<svg width="20" height="20" viewBox="0 0 20 20" fill="none" xmlns="http://www.w3.org/2000/svg">
<rect width="20" height="20" rx="10" fill="#3D71EA"/>
<path d="M10.2159 8.204H12.6159V7.16H10.3239C9.66386 8.864 8.13986 10.028 5.78786 10.676L5.21186 9.512C7.68386 8.864 8.89586 7.676 9.08786 6.176H5.78786V4.976H10.7079C10.7079 5.324 10.6839 5.66 10.6359 5.972H12.6159V4.244H14.1039V10.46H12.6159V9.392H10.2159V8.204ZM6.91586 12.776C6.91586 11.432 8.35586 10.604 10.5519 10.604C12.7239 10.604 14.1639 11.432 14.1639 12.776C14.1639 14.108 12.7239 14.948 10.5519 14.948C8.35586 14.948 6.91586 14.108 6.91586 12.776ZM8.39186 12.776C8.39186 13.448 9.20786 13.796 10.5519 13.796C11.8959 13.796 12.6999 13.448 12.6999 12.776C12.6999 12.092 11.8959 11.744 10.5519 11.744C9.20786 11.744 8.39186 12.092 8.39186 12.776Z" fill="white"/>
</svg>
