<svg width="37" height="20" viewBox="0 0 37 20" fill="none" xmlns="http://www.w3.org/2000/svg">
<rect width="37" height="20" rx="10" fill="#3D71EA"/>
<path d="M13.4717 8.204H15.8717V7.16H13.5797C12.9197 8.864 11.3957 10.028 9.04372 10.676L8.46772 9.512C10.9397 8.864 12.1517 7.676 12.3437 6.176H9.04372V4.976H13.9637C13.9637 5.324 13.9397 5.66 13.8917 5.972H15.8717V4.244H17.3597V10.46H15.8717V9.392H13.4717V8.204ZM10.1717 12.776C10.1717 11.432 11.6117 10.604 13.8077 10.604C15.9797 10.604 17.4197 11.432 17.4197 12.776C17.4197 14.108 15.9797 14.948 13.8077 14.948C11.6117 14.948 10.1717 14.108 10.1717 12.776ZM11.6477 12.776C11.6477 13.448 12.4637 13.796 13.8077 13.796C15.1517 13.796 15.9557 13.448 15.9557 12.776C15.9557 12.092 15.1517 11.744 13.8077 11.744C12.4637 11.744 11.6477 12.092 11.6477 12.776ZM25.832 4.244H27.32V6.788H28.772V8.012H27.32V10.484H25.832V4.244ZM18.8 9.536C21.176 8.888 22.52 7.652 22.736 6.152H19.304V4.952H24.368C24.368 7.844 22.568 9.836 19.412 10.724L18.8 9.536ZM20.24 12.824C20.24 11.48 21.68 10.64 23.852 10.64C26.012 10.64 27.44 11.48 27.44 12.824C27.44 14.168 26.012 15.008 23.852 15.008C21.68 15.008 20.24 14.168 20.24 12.824ZM21.728 12.824C21.728 13.496 22.52 13.856 23.852 13.856C25.184 13.856 25.988 13.496 25.988 12.824C25.988 12.14 25.184 11.792 23.852 11.792C22.52 11.792 21.728 12.14 21.728 12.824Z" fill="white"/>
</svg>
