<svg width="20" height="20" viewBox="0 0 20 20" fill="none" xmlns="http://www.w3.org/2000/svg">
<rect width="20" height="20" rx="10" fill="#8CC2A7"/>
<path d="M5.12786 9.152H14.8479V10.34H10.7319V11.168C12.5919 11.312 13.6959 11.972 13.6959 13.076C13.6959 14.312 12.2919 15.008 9.96386 15.008C7.64786 15.008 6.24386 14.312 6.24386 13.076C6.24386 11.96 7.35986 11.3 9.24386 11.168V10.34H5.12786V9.152ZM5.54786 7.556C7.56386 7.376 8.65586 6.644 8.90786 5.876H6.01586V4.712H13.9839V5.876H11.0679C11.3079 6.644 12.3999 7.376 14.4279 7.556L13.9119 8.72C11.9079 8.528 10.5519 7.76 9.98786 6.716C9.42386 7.76 8.06786 8.528 6.06386 8.72L5.54786 7.556ZM7.74386 13.076C7.74386 13.628 8.49986 13.88 9.96386 13.88C11.4399 13.88 12.1959 13.628 12.1959 13.076C12.1959 12.524 11.4399 12.26 9.96386 12.26C8.49986 12.26 7.74386 12.524 7.74386 13.076Z" fill="white"/>
</svg>
