<svg width="41" height="20" viewBox="0 0 41 20" fill="none" xmlns="http://www.w3.org/2000/svg">
<rect width="41" height="20" rx="10" fill="#4FAC7F"/>
<path d="M15.4717 8.204H17.8717V7.16H15.5797C14.9197 8.864 13.3957 10.028 11.0437 10.676L10.4677 9.512C12.9397 8.864 14.1517 7.676 14.3437 6.176H11.0437V4.976H15.9637C15.9637 5.324 15.9397 5.66 15.8917 5.972H17.8717V4.244H19.3597V10.46H17.8717V9.392H15.4717V8.204ZM12.1717 12.776C12.1717 11.432 13.6117 10.604 15.8077 10.604C17.9797 10.604 19.4197 11.432 19.4197 12.776C19.4197 14.108 17.9797 14.948 15.8077 14.948C13.6117 14.948 12.1717 14.108 12.1717 12.776ZM13.6477 12.776C13.6477 13.448 14.4637 13.796 15.8077 13.796C17.1517 13.796 17.9557 13.448 17.9557 12.776C17.9557 12.092 17.1517 11.744 15.8077 11.744C14.4637 11.744 13.6477 12.092 13.6477 12.776ZM24.976 4.28H26.476V5.3H29.656V6.452H26.584C26.776 7.292 27.88 8.06 30.148 8.228L29.692 9.356C27.736 9.2 26.392 8.576 25.72 7.664C25.06 8.576 23.716 9.2 21.76 9.356L21.304 8.228C23.572 8.06 24.676 7.292 24.868 6.452H21.808V5.3H24.976V4.28ZM20.872 10.988V9.812H30.604V10.988H26.608V12.74H25.108V10.988H20.872ZM22 14.804V11.804H23.488V13.616H29.524V14.804H22Z" fill="white"/>
</svg>
