<svg width="58" height="20" viewBox="0 0 58 20" fill="none" xmlns="http://www.w3.org/2000/svg">
<rect width="58" height="20" rx="10" fill="#8CC2A7"/>
<path d="M13.4834 8.204H15.8834V7.16H13.5914C12.9314 8.864 11.4074 10.028 9.05544 10.676L8.47944 9.512C10.9514 8.864 12.1634 7.676 12.3554 6.176H9.05544V4.976H13.9754C13.9754 5.324 13.9514 5.66 13.9034 5.972H15.8834V4.244H17.3714V10.46H15.8834V9.392H13.4834V8.204ZM10.1834 12.776C10.1834 11.432 11.6234 10.604 13.8194 10.604C15.9914 10.604 17.4314 11.432 17.4314 12.776C17.4314 14.108 15.9914 14.948 13.8194 14.948C11.6234 14.948 10.1834 14.108 10.1834 12.776ZM11.6594 12.776C11.6594 13.448 12.4754 13.796 13.8194 13.796C15.1634 13.796 15.9674 13.448 15.9674 12.776C15.9674 12.092 15.1634 11.744 13.8194 11.744C12.4754 11.744 11.6594 12.092 11.6594 12.776ZM22.3397 4.964C24.0197 4.964 25.2797 6.068 25.2797 7.604C25.2797 9.152 24.0197 10.244 22.3397 10.244C20.6477 10.244 19.3757 9.152 19.3757 7.604C19.3757 6.068 20.6477 4.964 22.3397 4.964ZM18.9197 11.612C20.8157 11.612 23.4677 11.6 25.7357 11.264L25.8437 12.344C23.5037 12.8 20.9597 12.824 19.0997 12.824L18.9197 11.612ZM20.8277 7.604C20.8277 8.456 21.4757 8.972 22.3397 8.972C23.1797 8.972 23.8277 8.456 23.8277 7.604C23.8277 6.74 23.1797 6.236 22.3397 6.236C21.4757 6.236 20.8277 6.74 20.8277 7.604ZM26.3357 15.02V4.232H27.8237V15.02H26.3357ZM29.372 9.152H39.092V10.34H34.976V11.168C36.836 11.312 37.94 11.972 37.94 13.076C37.94 14.312 36.536 15.008 34.208 15.008C31.892 15.008 30.488 14.312 30.488 13.076C30.488 11.96 31.604 11.3 33.488 11.168V10.34H29.372V9.152ZM29.792 7.556C31.808 7.376 32.9 6.644 33.152 5.876H30.26V4.712H38.228V5.876H35.312C35.552 6.644 36.644 7.376 38.672 7.556L38.156 8.72C36.152 8.528 34.796 7.76 34.232 6.716C33.668 7.76 32.312 8.528 30.308 8.72L29.792 7.556ZM31.988 13.076C31.988 13.628 32.744 13.88 34.208 13.88C35.684 13.88 36.44 13.628 36.44 13.076C36.44 12.524 35.684 12.26 34.208 12.26C32.744 12.26 31.988 12.524 31.988 13.076ZM42.8603 4.844C44.5163 4.844 45.7643 5.924 45.7643 7.448C45.7643 8.96 44.5163 10.04 42.8603 10.04C41.2043 10.04 39.9563 8.96 39.9563 7.448C39.9563 5.924 41.2043 4.844 42.8603 4.844ZM41.1803 12.884C41.1803 11.564 42.5963 10.772 44.8163 10.772C47.0363 10.772 48.4403 11.564 48.4403 12.884C48.4403 14.216 47.0363 15.008 44.8163 15.008C42.5963 15.008 41.1803 14.216 41.1803 12.884ZM41.3963 7.448C41.3963 8.288 42.0323 8.792 42.8603 8.792C43.7003 8.792 44.3243 8.288 44.3243 7.448C44.3243 6.596 43.7003 6.08 42.8603 6.08C42.0323 6.08 41.3963 6.596 41.3963 7.448ZM42.6563 12.884C42.6563 13.52 43.4243 13.844 44.8163 13.844C46.2083 13.844 46.9643 13.52 46.9643 12.884C46.9643 12.248 46.2083 11.948 44.8163 11.948C43.4243 11.948 42.6563 12.248 42.6563 12.884ZM46.8203 10.532V4.256H48.3083V6.704H49.7603V7.916H48.3083V10.532H46.8203Z" fill="white"/>
</svg>
