<svg width="20" height="20" viewBox="0 0 20 20" fill="none" xmlns="http://www.w3.org/2000/svg">
<rect width="20" height="20" rx="10" fill="#4FAC7F"/>
<path d="M9.23186 4.28H10.7319V5.3H13.9119V6.452H10.8399C11.0319 7.292 12.1359 8.06 14.4039 8.228L13.9479 9.356C11.9919 9.2 10.6479 8.576 9.97586 7.664C9.31586 8.576 7.97186 9.2 6.01586 9.356L5.55986 8.228C7.82786 8.06 8.93186 7.292 9.12386 6.452H6.06386V5.3H9.23186V4.28ZM5.12786 10.988V9.812H14.8599V10.988H10.8639V12.74H9.36386V10.988H5.12786ZM6.25586 14.804V11.804H7.74386V13.616H13.7799V14.804H6.25586Z" fill="white"/>
</svg>
