<svg width="20" height="20" viewBox="0 0 20 20" fill="none" xmlns="http://www.w3.org/2000/svg">
<rect width="20" height="20" rx="10" fill="#82B4E0"/>
<path d="M9.92786 10.964C12.2559 10.964 13.7439 11.72 13.7439 12.992C13.7439 14.252 12.2559 15.008 9.92786 15.008C7.62386 15.008 6.13586 14.252 6.13586 12.992C6.13586 11.72 7.62386 10.964 9.92786 10.964ZM5.15186 10.256V9.068H8.77586V7.184H10.2639V9.068H14.8359V10.256H5.15186ZM6.24386 5.924V4.748H13.6719V5.624C13.6719 6.476 13.6719 7.388 13.3839 8.504L11.9199 8.348C12.1599 7.376 12.1959 6.656 12.1959 5.924H6.24386ZM7.61186 12.992C7.61186 13.58 8.46386 13.892 9.92786 13.892C11.4159 13.892 12.2679 13.58 12.2679 12.992C12.2679 12.392 11.4159 12.08 9.92786 12.08C8.46386 12.08 7.61186 12.392 7.61186 12.992Z" fill="white"/>
</svg>
