<svg width="41" height="20" viewBox="0 0 41 20" fill="none" xmlns="http://www.w3.org/2000/svg">
<rect width="41" height="20" rx="10" fill="#82B4E0"/>
<path d="M15.1837 10.964C17.5117 10.964 18.9997 11.72 18.9997 12.992C18.9997 14.252 17.5117 15.008 15.1837 15.008C12.8797 15.008 11.3917 14.252 11.3917 12.992C11.3917 11.72 12.8797 10.964 15.1837 10.964ZM10.4077 10.256V9.068H14.0317V7.184H15.5197V9.068H20.0917V10.256H10.4077ZM11.4997 5.924V4.748H18.9277V5.624C18.9277 6.476 18.9277 7.388 18.6397 8.504L17.1757 8.348C17.4157 7.376 17.4517 6.656 17.4517 5.924H11.4997ZM12.8677 12.992C12.8677 13.58 13.7197 13.892 15.1837 13.892C16.6717 13.892 17.5237 13.58 17.5237 12.992C17.5237 12.392 16.6717 12.08 15.1837 12.08C13.7197 12.08 12.8677 12.392 12.8677 12.992ZM27.832 4.256H29.32V7.016H30.772V8.228H29.32V11.072H27.832V4.256ZM20.884 6.452V5.288H23.296V4.172H24.784V5.288H27.208V6.452H20.884ZM21.412 8.744C21.412 7.604 22.492 6.824 24.052 6.824C25.6 6.824 26.68 7.604 26.68 8.744C26.68 9.908 25.6 10.676 24.052 10.676C22.492 10.676 21.412 9.908 21.412 8.744ZM22.24 13.1C22.24 11.9 23.632 11.192 25.852 11.192C28.06 11.192 29.44 11.9 29.44 13.1C29.44 14.3 28.06 15.008 25.852 15.008C23.632 15.008 22.24 14.3 22.24 13.1ZM22.84 8.744C22.84 9.284 23.32 9.596 24.052 9.596C24.76 9.596 25.252 9.284 25.252 8.744C25.252 8.204 24.76 7.916 24.052 7.916C23.32 7.916 22.84 8.204 22.84 8.744ZM23.728 13.1C23.728 13.628 24.472 13.892 25.852 13.892C27.232 13.892 27.976 13.628 27.976 13.1C27.976 12.572 27.232 12.308 25.852 12.308C24.472 12.308 23.728 12.572 23.728 13.1Z" fill="white"/>
</svg>
