<svg width="37" height="20" viewBox="0 0 37 20" fill="none" xmlns="http://www.w3.org/2000/svg">
<rect width="37" height="20" rx="10" fill="#97C355"/>
<path d="M13.7837 7.64H15.8957V4.232H17.3717V15.02H15.8957V8.84H13.7837V7.64ZM8.23972 11.636C10.0397 10.796 10.9037 8.72 10.9037 6.68V5.084H12.3917V6.68C12.3917 8.708 13.2077 10.676 14.9717 11.468L14.0837 12.656C12.9077 12.08 12.1037 11 11.6597 9.668C11.1917 11.072 10.3637 12.224 9.16372 12.824L8.23972 11.636ZM18.86 5.888H20.72V4.532H22.184V5.888H24.02V7.064H18.86V5.888ZM19.1 10.124C19.1 8.636 20.096 7.58 21.452 7.58C22.82 7.58 23.804 8.636 23.804 10.124C23.804 11.624 22.82 12.668 21.452 12.668C20.096 12.668 19.1 11.624 19.1 10.124ZM20.42 10.124C20.42 10.964 20.852 11.432 21.452 11.432C22.064 11.432 22.496 10.964 22.496 10.124C22.496 9.296 22.064 8.804 21.452 8.804C20.852 8.804 20.42 9.296 20.42 10.124ZM24.416 14.54V4.46H25.808V8.636H26.672V4.244H28.088V14.996H26.672V9.836H25.808V14.54H24.416Z" fill="white"/>
</svg>
