<svg width="58" height="20" viewBox="0 0 58 20" fill="none" xmlns="http://www.w3.org/2000/svg">
<rect width="58" height="20" rx="10" fill="#E1AC3A"/>
<path d="M12.4874 4.568H14.0594V5.096C14.0594 6.368 15.3554 7.772 17.7674 8.096L17.1914 9.284C15.3314 8.996 13.9634 8.12 13.2794 6.956C12.5834 8.132 11.2154 8.996 9.35544 9.284L8.76744 8.096C11.1914 7.772 12.4874 6.38 12.4874 5.096V4.568ZM8.40744 11.324V10.112H18.1274V11.324H13.9754V15.008H12.4874V11.324H8.40744ZM26.3117 4.256H27.8117V11.996H26.3117V4.256ZM19.0397 7.664C19.0397 6.068 20.3237 4.94 21.9557 4.94C23.5997 4.94 24.8717 6.068 24.8717 7.664C24.8717 9.236 23.5997 10.388 21.9557 10.388C20.3237 10.388 19.0397 9.236 19.0397 7.664ZM20.4917 7.664C20.4917 8.54 21.1397 9.092 21.9557 9.092C22.7837 9.092 23.4197 8.54 23.4197 7.664C23.4197 6.764 22.7837 6.224 21.9557 6.224C21.1397 6.224 20.4917 6.764 20.4917 7.664ZM20.6717 14.804V11.216H22.1477V13.616H28.0757V14.804H20.6717ZM29.372 9.776H39.104V10.94H35.108V12.692H33.608V10.94H29.372V9.776ZM30.5 14.816V11.852H31.988V13.616H38.024V14.816H30.5ZM30.62 8.996V4.58H32.084V5.72H36.38V4.58H37.856V8.996H30.62ZM32.084 7.832H36.38V6.836H32.084V7.832ZM46.8443 4.244H48.3443V6.824H49.7603V8.036H48.3443V10.472H46.8443V4.244ZM40.2563 9.884V4.976H45.0563V6.176H41.7323V8.696C43.7003 8.684 44.7803 8.612 45.9803 8.36L46.1243 9.536C44.7923 9.824 43.5443 9.884 41.1443 9.884H40.2563ZM41.1803 12.836C41.1803 11.48 42.6083 10.664 44.8163 10.664C47.0243 10.664 48.4523 11.48 48.4523 12.836C48.4523 14.204 47.0243 15.008 44.8163 15.008C42.6083 15.008 41.1803 14.204 41.1803 12.836ZM42.6563 12.836C42.6563 13.484 43.4363 13.82 44.8163 13.82C46.1963 13.82 46.9763 13.484 46.9763 12.836C46.9763 12.176 46.1963 11.852 44.8163 11.852C43.4363 11.852 42.6563 12.176 42.6563 12.836Z" fill="white"/>
</svg>
