<svg width="48" height="20" viewBox="0 0 48 20" fill="none" xmlns="http://www.w3.org/2000/svg">
<rect width="48" height="20" rx="10" fill="#982C35"/>
<path d="M16.0556 4.256H17.5556V12.092H16.0556V4.256ZM8.60358 9.464C10.3916 8.84 11.1836 7.34 11.1836 5.9V4.832H12.6956V5.9C12.6956 7.316 13.4636 8.708 15.2156 9.272L14.4476 10.46C13.2476 10.052 12.4196 9.236 11.9516 8.204C11.4836 9.308 10.6196 10.196 9.37158 10.64L8.60358 9.464ZM10.4156 14.804V11.348H11.9036V13.616H17.8316V14.804H10.4156ZM19.1279 9.776H28.8599V10.94H24.8639V12.692H23.3639V10.94H19.1279V9.776ZM20.2559 14.816V11.852H21.7439V13.616H27.7799V14.816H20.2559ZM20.3759 8.996V4.58H21.8399V5.72H26.1359V4.58H27.6119V8.996H20.3759ZM21.8399 7.832H26.1359V6.836H21.8399V7.832ZM36.6001 4.244H38.1001V6.824H39.5161V8.036H38.1001V10.472H36.6001V4.244ZM30.0121 9.884V4.976H34.8121V6.176H31.4881V8.696C33.4561 8.684 34.5361 8.612 35.7361 8.36L35.8801 9.536C34.5481 9.824 33.3001 9.884 30.9001 9.884H30.0121ZM30.9361 12.836C30.9361 11.48 32.3641 10.664 34.5721 10.664C36.7801 10.664 38.2081 11.48 38.2081 12.836C38.2081 14.204 36.7801 15.008 34.5721 15.008C32.3641 15.008 30.9361 14.204 30.9361 12.836ZM32.4121 12.836C32.4121 13.484 33.1921 13.82 34.5721 13.82C35.9521 13.82 36.7321 13.484 36.7321 12.836C36.7321 12.176 35.9521 11.852 34.5721 11.852C33.1921 11.852 32.4121 12.176 32.4121 12.836Z" fill="white"/>
</svg>
