<svg width="58" height="20" viewBox="0 0 58 20" fill="none" xmlns="http://www.w3.org/2000/svg">
<rect width="58" height="20" rx="10" fill="#89C17A"/>
<path d="M16.2074 4.244H17.6114V14.996H16.2074V4.244ZM8.47944 8.912C8.47944 6.488 9.39144 5.012 10.8074 5.012C12.0914 5.012 12.9674 6.212 13.1234 8.228H14.0114V4.424H15.4034V14.504H14.0114V9.428H13.1354C13.0154 11.54 12.1274 12.8 10.8074 12.8C9.39144 12.8 8.47944 11.336 8.47944 8.912ZM9.83544 8.912C9.83544 10.568 10.1954 11.396 10.8074 11.396C11.4314 11.396 11.7914 10.568 11.7914 8.912C11.7914 7.244 11.4314 6.416 10.8074 6.416C10.1954 6.416 9.83544 7.244 9.83544 8.912ZM26.4077 4.232H27.8837V15.02H26.4077V9.236H24.4277V12.464H19.2797V5.084H20.7557V7.712H22.9517V5.084H24.4277V8.048H26.4077V4.232ZM20.7557 11.276H22.9517V8.864H20.7557V11.276ZM36.32 4.232H37.796V8.324H39.368V9.56H37.796V15.02H36.32V4.232ZM29.804 6.356V5.168H34.748V9.296H31.304V11.288C32.876 11.276 34.16 11.204 35.576 10.952L35.708 12.152C34.076 12.452 32.612 12.512 30.728 12.512H29.828V8.12H33.272V6.356H29.804ZM47.2883 4.256H48.7883V11.996H47.2883V4.256ZM40.0163 7.664C40.0163 6.068 41.3003 4.94 42.9323 4.94C44.5763 4.94 45.8483 6.068 45.8483 7.664C45.8483 9.236 44.5763 10.388 42.9323 10.388C41.3003 10.388 40.0163 9.236 40.0163 7.664ZM41.4683 7.664C41.4683 8.54 42.1163 9.092 42.9323 9.092C43.7603 9.092 44.3963 8.54 44.3963 7.664C44.3963 6.764 43.7603 6.224 42.9323 6.224C42.1163 6.224 41.4683 6.764 41.4683 7.664ZM41.6483 14.804V11.216H43.1243V13.616H49.0523V14.804H41.6483Z" fill="white"/>
</svg>
