<svg width="20" height="20" viewBox="0 0 20 20" fill="none" xmlns="http://www.w3.org/2000/svg">
<rect width="20" height="20" rx="10" fill="#89C17A"/>
<path d="M12.9399 4.244H14.3439V14.996H12.9399V4.244ZM5.21186 8.912C5.21186 6.488 6.12386 5.012 7.53986 5.012C8.82386 5.012 9.69986 6.212 9.85586 8.228H10.7439V4.424H12.1359V14.504H10.7439V9.428H9.86786C9.74786 11.54 8.85986 12.8 7.53986 12.8C6.12386 12.8 5.21186 11.336 5.21186 8.912ZM6.56786 8.912C6.56786 10.568 6.92786 11.396 7.53986 11.396C8.16386 11.396 8.52386 10.568 8.52386 8.912C8.52386 7.244 8.16386 6.416 7.53986 6.416C6.92786 6.416 6.56786 7.244 6.56786 8.912Z" fill="white"/>
</svg>
