<svg width="44" height="20" viewBox="0 0 44 20" fill="none" xmlns="http://www.w3.org/2000/svg">
<rect width="44" height="20" rx="10" fill="#E9AE54"/>
<path d="M15.8605 4.256H17.3605V11.996H15.8605V4.256ZM8.58855 7.664C8.58855 6.068 9.87255 4.94 11.5045 4.94C13.1485 4.94 14.4205 6.068 14.4205 7.664C14.4205 9.236 13.1485 10.388 11.5045 10.388C9.87255 10.388 8.58855 9.236 8.58855 7.664ZM10.0405 7.664C10.0405 8.54 10.6885 9.092 11.5045 9.092C12.3325 9.092 12.9685 8.54 12.9685 7.664C12.9685 6.764 12.3325 6.224 11.5045 6.224C10.6885 6.224 10.0405 6.764 10.0405 7.664ZM10.2205 14.804V11.216H11.6965V13.616H17.6245V14.804H10.2205ZM19.2088 5.54H21.3568V4.328H22.8328V5.54H24.9808V6.692H22.8328V6.764C22.8328 8 23.6248 9.248 25.3528 9.764L24.6448 10.928C23.4448 10.568 22.6048 9.836 22.1248 8.9C21.6448 9.908 20.8048 10.712 19.5688 11.108L18.8488 9.944C20.5768 9.404 21.3568 8.096 21.3568 6.764V6.692H19.2088V5.54ZM20.8168 14.804V11.552H22.3048V13.616H28.1488V14.804H20.8168ZM24.6328 8.6V7.388H26.4088V4.256H27.8968V12.212H26.4088V8.6H24.6328ZM29.7811 12.788C31.5451 11.096 33.8491 9.56 33.8491 8.132C33.8491 7.196 33.2611 6.536 32.4211 6.536C31.7611 6.536 31.1011 7.004 30.8011 7.676L29.5531 7.112C30.0571 5.996 31.2451 5.204 32.4211 5.204C34.1131 5.204 35.2891 6.416 35.2891 8.132C35.2891 9.968 33.4411 11.468 31.8571 12.788H35.4211V14.048H29.9011L29.7811 12.788Z" fill="white"/>
</svg>
