<svg width="43" height="20" viewBox="0 0 43 20" fill="none" xmlns="http://www.w3.org/2000/svg">
<rect width="43" height="20" rx="10" fill="#7898CB"/>
<path d="M16.2512 4.256H17.7512V11.996H16.2512V4.256ZM8.97917 7.664C8.97917 6.068 10.2632 4.94 11.8952 4.94C13.5392 4.94 14.8112 6.068 14.8112 7.664C14.8112 9.236 13.5392 10.388 11.8952 10.388C10.2632 10.388 8.97917 9.236 8.97917 7.664ZM10.4312 7.664C10.4312 8.54 11.0792 9.092 11.8952 9.092C12.7232 9.092 13.3592 8.54 13.3592 7.664C13.3592 6.764 12.7232 6.224 11.8952 6.224C11.0792 6.224 10.4312 6.764 10.4312 7.664ZM10.6112 14.804V11.216H12.0872V13.616H18.0152V14.804H10.6112ZM19.5995 5.54H21.7475V4.328H23.2235V5.54H25.3715V6.692H23.2235V6.764C23.2235 8 24.0155 9.248 25.7435 9.764L25.0355 10.928C23.8355 10.568 22.9955 9.836 22.5155 8.9C22.0355 9.908 21.1955 10.712 19.9595 11.108L19.2395 9.944C20.9675 9.404 21.7475 8.096 21.7475 6.764V6.692H19.5995V5.54ZM21.2075 14.804V11.552H22.6955V13.616H28.5395V14.804H21.2075ZM25.0235 8.6V7.388H26.7995V4.256H28.2875V12.212H26.7995V8.6H25.0235ZM33.4597 5.288V14.048L32.0197 14.036V6.812L30.3997 7.616L29.8597 6.392L32.0197 5.288H33.4597Z" fill="white"/>
</svg>
