<svg width="20" height="20" viewBox="0 0 20 20" fill="none" xmlns="http://www.w3.org/2000/svg">
<rect width="20" height="20" rx="10" fill="#7898CB"/>
<path d="M12.5559 4.256H14.0559V11.996H12.5559V4.256ZM5.28386 7.664C5.28386 6.068 6.56786 4.94 8.19986 4.94C9.84386 4.94 11.1159 6.068 11.1159 7.664C11.1159 9.236 9.84386 10.388 8.19986 10.388C6.56786 10.388 5.28386 9.236 5.28386 7.664ZM6.73586 7.664C6.73586 8.54 7.38386 9.092 8.19986 9.092C9.02786 9.092 9.66386 8.54 9.66386 7.664C9.66386 6.764 9.02786 6.224 8.19986 6.224C7.38386 6.224 6.73586 6.764 6.73586 7.664ZM6.91586 14.804V11.216H8.39186V13.616H14.3199V14.804H6.91586Z" fill="white"/>
</svg>
